<svg width="51" height="38" viewBox="0 0 51 38" fill="none" xmlns="http://www.w3.org/2000/svg">
<path d="M3 16.5C1.61929 16.5 0.5 17.6193 0.5 19C0.5 20.3807 1.61929 21.5 3 21.5V16.5ZM50.2678 20.7678C51.2441 19.7915 51.2441 18.2085 50.2678 17.2322L34.3579 1.32233C33.3816 0.34602 31.7986 0.34602 30.8223 1.32233C29.846 2.29864 29.846 3.88155 30.8223 4.85786L44.9645 19L30.8223 33.1421C29.846 34.1184 29.846 35.7014 30.8223 36.6777C31.7986 37.654 33.3816 37.654 34.3579 36.6777L50.2678 20.7678ZM3 21.5H48.5V16.5H3V21.5Z" fill="black"/>
</svg>
