<svg width="934" height="934" viewBox="0 0 934 934" fill="none" xmlns="http://www.w3.org/2000/svg">
<g clip-path="url(#clip0_1910_322)">
<mask id="mask0_1910_322" style="mask-type:luminance" maskUnits="userSpaceOnUse" x="0" y="0" width="934" height="934">
<path d="M0 -0.00026989H933.333V933.333H0V-0.00026989Z" fill="white"/>
</mask>
<g mask="url(#mask0_1910_322)">
<path d="M933 466.5C933 208.86 724.141 0.000267188 466.5 0.000267188C208.86 0.000267188 0 208.86 0 466.5C0 685.279 150.614 868.85 353.805 919.262V609.055H257.609V466.5H353.805V405.073C353.805 246.292 425.661 172.697 581.546 172.697C611.1 172.697 662.096 178.491 682.958 184.286V313.514C671.947 312.355 652.824 311.775 629.064 311.775C552.571 311.775 523.016 340.75 523.016 416.084V466.5H675.391L649.215 609.055H523.016V929.583C754 901.684 933 705.008 933 466.5Z" fill="#0866FF"/>
<path d="M649.216 609.055L675.394 466.5H523.018V416.083C523.018 340.749 552.572 311.775 629.065 311.775C652.824 311.775 671.947 312.354 682.959 313.513V184.287C662.097 178.491 611.101 172.695 581.547 172.695C425.663 172.695 353.805 246.292 353.805 405.074V466.5H257.609V609.055H353.805V919.263C389.899 928.216 427.639 933 466.501 933C485.635 933 504.489 931.821 523.018 929.583V609.055H649.216Z" fill="white"/>
</g>
</g>
<defs>
<clipPath id="clip0_1910_322">
<rect width="933.333" height="933.333" fill="white"/>
</clipPath>
</defs>
</svg>
