<svg width="704" height="232" viewBox="0 0 704 232" fill="none" xmlns="http://www.w3.org/2000/svg">
<mask id="mask0_190_438" style="mask-type:alpha" maskUnits="userSpaceOnUse" x="0" y="0" width="233" height="232">
<ellipse cx="116.164" cy="116" rx="116.164" ry="116" fill="#D9D9D9"/>
</mask>
<g mask="url(#mask0_190_438)">
<path d="M0 0V232H232.328V0H0Z" fill="#4AA1B4"/>
<path d="M87.1228 196.883L153.22 232H232.328V99.992L119.417 40.368L111.894 186.523L87.1228 196.883Z" fill="#407682"/>
<path d="M92.9125 197.827C91.4427 197.789 89.7068 197.621 88.852 197.435C86.4989 196.924 85.8067 196.272 85.8682 195.376C85.9296 194.48 87.9474 193.006 88.852 192.151C90.9793 190.138 102.408 184.217 103.813 183.549C104.74 183.109 107.043 182.295 107.581 182.295C107.94 182.295 110.457 184.818 111.349 185.7C112.27 186.237 114.425 186.946 115.297 187.671C119.224 190.936 117.244 189.182 122.116 191.613C126.702 193.901 128.636 194.665 134.801 196.616C136.246 197.074 138.345 197.841 138.445 197.885C138.603 197.954 95.4703 197.895 92.9125 197.827Z" fill="#FFB800"/>
<path d="M134.194 197.115C127.426 194.93 123.829 193.519 119.457 191.333C115.668 189.438 113.221 187.975 110.632 186.057C107.555 183.776 106.818 183.329 105.786 181.937C105.252 181.216 104.531 180.218 103.813 179.285C103.094 178.353 102.198 176.956 101.659 176.06C101.121 175.164 100.403 173.91 99.5059 172.297C98.6086 170.684 94.8708 162.669 93.2602 158.893C89.1247 149.196 86.2546 137.299 84.6755 123.306C83.9291 116.692 82.6381 105.243 82.2792 100.942C81.9204 96.6418 82.0612 72.1431 81.7409 70.8383C81.7409 64.0248 85.0635 70.9222 86.5859 70.8383C88.77 70.718 91.2514 70.8383 93.5842 70.8383C95.917 70.8383 101.055 69.5593 102.018 70.1215C103.813 70.1215 115.544 72.0313 116.553 74.2429C117.58 76.4924 113.465 91.4016 114.4 98.6129C115.591 107.804 111.092 115.004 113.861 126.567C116.72 138.501 119.011 149.815 122.834 157.567C125.322 162.614 125.114 165.481 128.037 168.318C131.375 171.558 133.266 173.294 134.75 173.072C136.234 172.85 136.568 172.555 137.189 171.1C137.811 169.645 138.14 169.399 138.804 165.989C140.284 158.388 141.674 150.628 141.675 144.127C141.675 143.183 142.235 141.414 142.572 142.156C143.133 142.489 142.783 144.939 143.194 147.778C145.277 162.156 146.428 167.935 148.721 175.524C150.701 182.077 152.301 186.561 153.544 189.039C155.098 192.138 157.492 194.757 159.44 197.025C159.781 197.422 159.799 197.878 159.799 197.921C159.799 197.964 154.758 197.927 148.853 197.921L143.485 197.915L138.117 197.91L134.194 197.114L134.194 197.115Z" fill="white"/>
<path d="M159.052 197.123C155.811 193.315 152.623 188.97 150.764 183.876C149.039 179.147 147.123 170.767 146.293 166.926C145.103 161.417 143.811 152.668 142.564 143.483C142.253 141.193 142.638 133.633 142.564 138.931C142.444 147.386 141.215 158.06 139.702 165.63C138.943 169.425 138.295 170.975 137.548 171.902C136.862 172.754 135.882 173.832 134.773 173.856C133.434 173.885 131.623 172.265 129.473 170.648C124.327 166.777 120.921 157.029 117.809 149.145C114.698 141.26 113.323 135.347 111.708 122.803C110.093 110.26 110.675 105.96 111.708 97.3584C112.742 88.7572 117.451 78.5433 114.579 74.4219C111.708 70.3006 104.89 71.0173 99.5062 71.0173C94.1229 71.0173 93.8663 70.9081 88.2012 71.0173C85.4326 71.0708 85.8684 71.0173 83.8945 70.4797C81.9206 69.9422 81.7412 69.0462 81.7412 69.0462C81.7412 69.0462 81.3824 66.8959 81.0232 64.7456C80.6641 62.5953 78.3316 57.9588 75.8194 54.3526C73.3072 50.7464 68.1033 48.081 66.3089 47.3643C64.5144 46.6475 51.2355 43.2429 47.6466 43.2429C44.0577 43.2429 42.9547 43.892 42.9811 43.2429C43.02 42.2854 46.6641 39.9247 49.9794 39.6591C55.5421 39.2135 67.206 40.391 71.5126 41.1078C75.8193 41.8245 84.936 36.2021 88.2012 35.1792C91.4663 34.1562 95.1994 34.104 98.9677 34.104C102.736 34.104 108.265 34.8517 113.144 36.6127C118.023 38.3737 120.242 39.1515 123.485 41.1078C126.197 42.7434 128.691 45.4502 131.555 49.8671C134.23 53.993 136.682 59.4531 140.095 68.8871C144.336 80.6079 150.893 105.213 160.065 143.822C164.08 160.726 166.843 171.554 167.764 173.993C168.251 175.285 168.872 176.066 170.434 177.351C171.933 178.584 177.322 182.618 182.718 186.547C188.415 190.696 189.347 191.688 189.347 193.606C189.347 194.726 189.312 195.584 188.256 196.731C187.488 197.564 186.945 197.564 186.17 197.691C185.674 197.772 179.68 197.841 172.85 197.844L159.799 197.885L159.052 197.123Z" fill="#1C1C20"/>
<path d="M68.2827 44.1388C62.0022 42.3469 57.1572 41.9885 54.8244 42.3469C52.4916 42.7053 53.7477 44.1388 54.4655 44.318C55.1833 44.4972 56.7983 45.0348 61.8227 46.2891C66.8471 47.5435 67.5649 47.9018 70.6155 49.6938C73.666 51.4857 79.9465 54.8903 80.8438 53.8151C81.741 52.74 81.9204 52.2024 80.126 49.873C78.3315 47.5435 74.5632 45.9307 68.2827 44.1388Z" fill="url(#paint0_linear_190_438)"/>
<path d="M120.86 56.1446C114.041 54.3527 115.117 61.8787 114.22 65.1042C113.323 68.3296 110.631 71.7342 113.682 73.5261C116.733 75.318 125.525 75.4972 128.755 73.3469C131.985 71.1966 138.086 66.3585 136.292 64.029C134.497 61.6995 127.679 57.9365 120.86 56.1446Z" fill="url(#paint1_linear_190_438)"/>
<path d="M95.2701 48.2226C96.7958 48.2226 98.0326 46.9875 98.0326 45.464C98.0326 43.9404 96.7958 42.7053 95.2701 42.7053C93.7444 42.7053 92.5076 43.9404 92.5076 45.464C92.5076 46.9875 93.7444 48.2226 95.2701 48.2226Z" fill="black"/>
<path d="M87.4181 76.3963C87.7699 76.2222 88.6493 76.3963 89.5286 76.7443C90.408 77.0924 92.1668 77.9625 92.6944 78.3105C93.222 78.6586 94.629 80.0508 94.629 80.0508C94.629 80.0508 95.3325 80.2248 96.2119 80.2248C97.0912 80.2248 97.7947 80.0508 97.7947 80.0508C97.7947 80.0508 99.2017 78.6586 99.7293 78.3105C100.257 77.9625 102.016 77.0924 102.895 76.7443C103.774 76.3963 104.478 76.3963 105.006 76.5703C105.533 76.7443 105.709 79.3547 105.709 81.443C105.709 83.5313 105.709 86.3157 105.357 86.4897C105.006 86.6637 103.774 86.3157 102.895 85.9676C102.016 85.6196 100.609 84.7495 99.7293 84.2274C98.85 83.7053 97.7947 83.0092 97.7947 83.0092C97.7947 83.0092 97.2671 82.8352 96.2119 82.8352C95.1566 82.8352 94.629 83.0092 94.629 83.0092C94.629 83.0092 93.3979 83.7053 92.6944 84.2274C91.9909 84.7495 90.5839 85.6196 89.8804 85.9676C89.1769 86.3157 87.9458 86.6637 87.594 86.4897C87.2423 86.3157 86.8905 83.8793 86.8905 81.791C86.8905 79.7027 87.0664 76.5703 87.4181 76.3963Z" fill="black"/>
</g>
<path d="M237.276 20.0624V25.7924H257.51V100.764H263.248V25.7924H283.482V20.0624H237.276Z" fill="black"/>
<path d="M331.817 20.0624V77.7239C331.817 82.4687 330.126 86.5299 326.743 89.9076C323.361 93.2852 319.274 94.9741 314.482 94.9741C309.73 94.9741 305.664 93.2852 302.281 89.9076C298.899 86.5299 297.207 82.4687 297.207 77.7239V20.0624H291.409V77.7239C291.409 84.0771 293.664 89.5055 298.174 94.009C302.684 98.5126 308.12 100.764 314.482 100.764C320.844 100.764 326.3 98.5126 330.851 94.009C335.36 89.5055 337.615 84.0771 337.615 77.7239V20.0624H331.817Z" fill="black"/>
<path d="M379.246 20.0624L365.535 52.9343L351.824 20.0624H345.542L362.394 60.4134L345.542 100.764H351.824L365.535 67.8925L379.246 100.764H385.467L368.615 60.4134L385.467 20.0624H379.246Z" fill="black"/>
<path d="M393.394 20.0624V100.764H433.802V94.9741H399.192V83.4538H422.265V77.7239H399.192V25.7924H433.802V20.0624H393.394Z" fill="black"/>
<path d="M447.527 25.7924C457.071 25.7924 465.225 29.1902 471.99 35.9857C478.754 42.741 482.137 50.8836 482.137 60.4134C482.137 69.9432 478.754 78.0858 471.99 84.8411C465.225 91.5964 457.071 94.9741 447.527 94.9741V25.7924ZM441.729 20.0624V100.764H447.527C458.641 100.764 468.144 96.8237 476.036 88.9425C483.969 81.0613 487.935 71.5516 487.935 60.4134C487.935 49.2752 483.969 39.7654 476.036 31.8842C468.144 24.003 458.641 20.0624 447.527 20.0624H441.729Z" fill="black"/>
<path d="M536.27 94.9741C526.727 94.9741 518.573 91.5964 511.808 84.8411C505.043 78.0858 501.661 69.9432 501.661 60.4134C501.661 50.8836 505.043 42.741 511.808 35.9857C518.573 29.1902 526.727 25.7924 536.27 25.7924C545.814 25.7924 553.968 29.1902 560.732 35.9857C567.538 42.741 570.94 50.8836 570.94 60.4134C570.94 69.9432 567.538 78.0858 560.732 84.8411C553.968 91.5964 545.814 94.9741 536.27 94.9741ZM536.27 20.0624C525.116 20.0624 515.593 24.003 507.701 31.8842C499.808 39.7654 495.862 49.2752 495.862 60.4134C495.862 71.5516 499.808 81.0613 507.701 88.9425C515.593 96.8237 525.116 100.764 536.27 100.764C547.424 100.764 556.947 96.8237 564.84 88.9425C572.732 81.0613 576.678 71.5516 576.678 60.4134C576.678 49.2752 572.732 39.7654 564.84 31.8842C556.947 24.003 547.424 20.0624 536.27 20.0624Z" fill="black"/>
<path d="M340.288 211.938C329.134 211.938 319.61 207.997 311.718 200.116C303.826 192.235 299.88 182.725 299.88 171.587C299.88 160.448 303.826 150.939 311.718 143.057C319.61 135.176 329.134 131.236 340.288 131.236V136.966C330.744 136.966 322.59 140.363 315.825 147.159C309.06 153.914 305.678 162.057 305.678 171.587C305.678 181.116 309.06 189.259 315.825 196.014C322.59 202.77 330.744 206.147 340.288 206.147V211.938Z" fill="black"/>
<path d="M388.622 131.236V188.897C388.622 193.642 386.931 197.703 383.549 201.081C380.166 204.458 376.079 206.147 371.287 206.147C366.536 206.147 362.469 204.458 359.087 201.081C355.704 197.703 354.013 193.642 354.013 188.897V131.236H348.214V188.897C348.214 195.25 350.469 200.679 354.979 205.182C359.489 209.686 364.925 211.938 371.287 211.938C377.65 211.938 383.106 209.686 387.656 205.182C392.166 200.679 394.421 195.25 394.421 188.897V131.236H388.622Z" fill="black"/>
<path d="M408.146 188.897V136.966H410.985C418.153 136.966 424.273 139.519 429.347 144.626C434.461 149.692 437.018 155.804 437.018 162.962C437.018 170.079 434.461 176.191 429.347 181.297C424.273 186.364 418.153 188.897 410.985 188.897H408.146ZM402.348 131.236V211.938H408.146V194.627H410.985C419.763 194.627 427.253 191.531 433.454 185.338C439.655 179.146 442.756 171.687 442.756 162.962C442.756 154.196 439.655 146.717 433.454 140.524C427.253 134.332 419.763 131.236 410.985 131.236H402.348Z" fill="black"/>
<path d="M491.091 211.938C479.937 211.938 470.414 207.997 462.521 200.116C454.629 192.235 450.683 182.725 450.683 171.587C450.683 160.448 454.629 150.939 462.521 143.057C470.414 135.176 479.937 131.236 491.091 131.236V136.966C481.547 136.966 473.393 140.363 466.628 147.159C459.864 153.914 456.481 162.057 456.481 171.587C456.481 181.116 459.864 189.259 466.628 196.014C473.393 202.77 481.547 206.147 491.091 206.147V211.938Z" fill="black"/>
<path d="M524.446 130.15L499.018 211.938H505.058L508.621 200.417H540.211L543.835 211.938H549.875L524.446 130.15ZM524.446 149.572L538.459 194.627H510.433L524.446 149.572Z" fill="black"/>
<path d="M591.566 131.236L563.54 180.815V131.236H557.741V211.938H563.54V192.516L588.244 211.938H597.606L566.379 187.45L598.21 131.236H591.566Z" fill="black"/>
<path d="M606.076 131.236V211.938H646.484V206.147H611.875V194.627H634.948V188.897H611.875V136.966H646.484V131.236H606.076Z" fill="black"/>
<path d="M677.907 160.006C678.35 160.127 678.853 160.247 679.417 160.368C685.095 161.614 689.262 162.982 691.92 164.469C695.665 166.56 698.624 169.596 700.799 173.577C702.933 177.437 704 181.579 704 186.002C704 193.159 701.463 199.271 696.39 204.338C691.316 209.404 685.175 211.938 677.967 211.938C670.8 211.938 664.679 209.404 659.606 204.338C654.532 199.271 651.995 193.159 651.995 186.002H657.794C657.794 191.551 659.767 196.296 663.713 200.236C667.659 204.177 672.411 206.147 677.967 206.147C683.565 206.147 688.356 204.177 692.343 200.236C696.289 196.296 698.262 191.551 698.262 186.002C698.262 180.614 696.269 176.05 692.282 172.31C689.786 169.938 684.732 167.867 677.122 166.098C669.793 164.369 664.82 160.891 662.203 155.663C660.874 152.969 660.391 149.994 660.753 146.737C661.116 143.56 662.203 140.725 664.015 138.232C665.827 135.699 668.263 133.809 671.323 132.563C674.343 131.316 677.424 130.914 680.565 131.356C681.853 131.517 683.081 131.819 684.249 132.261C687.511 133.548 690.188 135.699 692.282 138.715C694.336 141.771 695.363 145.028 695.363 148.486H689.564C689.564 144.545 687.974 141.409 684.793 139.077C681.612 136.785 678.149 136.242 674.404 137.448C670.659 138.654 668.183 141.147 666.974 144.927C665.726 148.868 666.411 152.346 669.028 155.362C670.88 157.453 673.84 159.001 677.907 160.006Z" fill="black"/>
<defs>
<linearGradient id="paint0_linear_190_438" x1="82.8176" y1="53.4568" x2="52.6813" y2="42.3193" gradientUnits="userSpaceOnUse">
<stop stop-color="#FF8A00"/>
<stop offset="1" stop-color="#FF5E2B"/>
</linearGradient>
<linearGradient id="paint1_linear_190_438" x1="130.191" y1="72.9886" x2="112.808" y2="56.2993" gradientUnits="userSpaceOnUse">
<stop stop-color="#FFE296"/>
<stop offset="0.321728" stop-color="#FFC531"/>
<stop offset="0.778613" stop-color="#FF7218"/>
<stop offset="1" stop-color="#FF6F31"/>
</linearGradient>
</defs>
</svg>
