<svg width="2846" height="940" viewBox="0 0 2846 940" fill="none" xmlns="http://www.w3.org/2000/svg">
<g clip-path="url(#clip0_190_437)">
<mask id="mask0_190_437" style="mask-type:alpha" maskUnits="userSpaceOnUse" x="0" y="0" width="940" height="940">
<circle cx="469.538" cy="469.538" r="469.538" fill="#D9D9D9"/>
</mask>
<g mask="url(#mask0_190_437)">
<path d="M0 0V939.075H939.075V0H0Z" fill="#009CA7"/>
<path d="M352.152 796.931L619.319 939.075H939.074V404.742L482.684 163.399L452.279 754.996L352.152 796.931Z" fill="#007478"/>
<path d="M375.555 800.754C369.614 800.597 362.597 799.917 359.142 799.166C349.631 797.097 346.833 794.458 347.081 790.831C347.33 787.204 355.486 781.239 359.142 777.775C367.741 769.629 413.934 745.664 419.613 742.96C423.36 741.176 432.669 737.883 434.845 737.883C436.295 737.883 446.47 748.096 450.076 751.664C453.798 753.84 462.509 756.707 466.033 759.642C481.906 772.86 473.904 765.761 493.596 775.599C512.133 784.861 519.95 787.954 544.868 795.852C550.711 797.704 559.196 800.808 559.599 800.985C560.236 801.266 385.894 801.029 375.555 800.754Z" fill="#FEB81C"/>
<path d="M542.415 797.869C515.061 789.026 500.521 783.313 482.849 774.466C467.531 766.797 457.641 760.875 447.179 753.109C434.739 743.876 431.761 742.068 427.59 736.432C425.43 733.513 422.515 729.475 419.613 725.7C416.71 721.926 413.085 716.271 410.909 712.645C408.733 709.018 405.831 703.941 402.205 697.413C398.578 690.885 383.47 658.441 376.96 643.156C360.244 603.908 348.643 555.75 342.26 499.11C339.243 472.337 334.025 425.996 332.574 408.588C331.124 391.181 331.693 292.017 330.398 286.735C330.398 259.156 343.829 287.075 349.982 286.735C358.81 286.248 368.84 286.735 378.269 286.735C387.699 286.735 408.468 281.558 412.359 283.834C419.613 283.834 467.03 291.564 471.11 300.516C475.259 309.622 458.629 369.97 462.406 399.159C467.22 436.362 449.035 465.505 460.23 512.309C471.786 560.617 481.045 606.411 496.496 637.789C506.556 658.218 505.714 669.822 517.53 681.308C531.021 694.421 538.663 701.45 544.663 700.55C550.663 699.651 552.012 698.459 554.523 692.568C557.034 686.678 558.365 685.682 561.049 671.879C567.032 641.114 572.652 609.702 572.655 583.39C572.655 579.566 574.919 572.407 576.281 575.411C578.546 576.759 577.133 586.673 578.796 598.166C587.215 656.367 591.867 679.759 601.135 710.477C609.136 736.999 615.604 755.149 620.628 765.18C626.91 777.723 636.587 788.326 644.461 797.507C645.838 799.113 645.912 800.958 645.912 801.133C645.912 801.308 625.535 801.156 601.667 801.133L579.97 801.11L558.272 801.087L542.415 797.865L542.415 797.869Z" fill="white"/>
<path d="M642.895 797.903C629.791 782.486 616.904 764.902 609.393 744.28C602.421 725.139 594.675 691.218 591.321 675.674C586.51 653.375 581.286 617.958 576.247 580.78C574.991 571.51 576.548 540.912 576.247 562.355C575.764 596.581 570.794 639.784 564.678 670.428C561.612 685.787 558.991 692.063 555.974 695.814C553.199 699.264 549.241 703.627 544.755 703.723C539.346 703.84 532.025 697.283 523.335 690.737C502.534 675.067 488.767 635.612 476.189 603.698C463.61 571.784 458.056 547.848 451.528 497.076C445 446.304 447.35 428.896 451.528 394.081C455.706 359.266 474.738 317.923 463.133 301.24C451.528 284.558 423.966 287.459 402.207 287.459C380.447 287.459 379.41 287.017 356.511 287.459C345.321 287.676 347.082 287.459 339.104 285.283C331.125 283.107 330.4 279.481 330.4 279.481C330.4 279.481 328.95 270.777 327.498 262.073C326.046 253.369 316.618 234.602 306.464 220.005C296.309 205.408 275.275 194.619 268.022 191.718C260.769 188.817 207.095 175.036 192.589 175.036C178.082 175.036 173.624 177.663 173.73 175.036C173.888 171.16 188.617 161.604 202.018 160.529C224.503 158.726 271.648 163.492 289.056 166.393C306.463 169.295 343.313 146.536 356.511 142.396C369.709 138.255 384.798 138.044 400.03 138.044C415.262 138.044 437.608 141.07 457.33 148.198C477.052 155.327 486.022 158.475 499.131 166.393C510.092 173.014 520.171 183.97 531.748 201.849C542.563 218.549 552.473 240.651 566.269 278.837C583.41 326.28 609.913 425.873 646.986 582.154C663.217 650.577 674.386 694.407 678.105 704.279C680.074 709.506 682.587 712.67 688.898 717.869C694.956 722.859 716.739 739.191 738.549 755.094C761.577 771.886 765.346 775.904 765.346 783.667C765.346 788.199 765.204 791.672 760.934 796.316C757.833 799.688 755.636 799.688 752.503 800.202C750.498 800.531 726.27 800.808 698.663 800.819L645.912 800.985L642.895 797.903Z" fill="#1C1C20"/>
<path d="M276 178.662C250.614 171.409 231.031 169.958 221.602 171.409C212.172 172.859 217.25 178.662 220.151 179.387C223.052 180.113 229.58 182.289 249.889 187.366C270.198 192.443 273.099 193.894 285.43 201.147C297.76 208.4 323.146 222.181 326.773 217.829C330.399 213.477 331.125 211.301 323.871 201.872C316.618 192.443 301.387 185.915 276 178.662Z" fill="url(#paint0_linear_190_437)"/>
<path d="M488.517 227.258C460.955 220.005 465.307 250.469 461.68 263.524C458.054 276.58 447.174 290.361 459.505 297.614C471.835 304.867 507.376 305.593 520.431 296.889C533.487 288.185 558.148 268.601 550.895 259.172C543.641 249.743 516.079 234.511 488.517 227.258Z" fill="url(#paint1_linear_190_437)"/>
<path d="M385.084 195.192C391.251 195.192 396.25 190.193 396.25 184.026C396.25 177.859 391.251 172.859 385.084 172.859C378.917 172.859 373.918 177.859 373.918 184.026C373.918 190.193 378.917 195.192 385.084 195.192Z" fill="black"/>
<path d="M353.348 309.232C354.769 308.528 358.324 309.232 361.878 310.641C365.433 312.05 372.541 315.572 374.674 316.981C376.807 318.39 382.494 324.025 382.494 324.025C382.494 324.025 385.337 324.729 388.892 324.729C392.446 324.729 395.29 324.025 395.29 324.025C395.29 324.025 400.977 318.39 403.11 316.981C405.242 315.572 412.351 312.05 415.906 310.641C419.46 309.232 422.304 309.232 424.436 309.937C426.569 310.641 427.28 321.207 427.28 329.66C427.28 338.113 427.28 349.384 425.858 350.088C424.436 350.792 419.46 349.384 415.906 347.975C412.351 346.566 406.664 343.044 403.11 340.931C399.555 338.817 395.29 336 395.29 336C395.29 336 393.157 335.295 388.892 335.295C384.627 335.295 382.494 336 382.494 336C382.494 336 377.518 338.817 374.674 340.931C371.831 343.044 366.144 346.566 363.3 347.975C360.456 349.384 355.48 350.792 354.058 350.088C352.637 349.384 351.215 339.522 351.215 331.069C351.215 322.616 351.926 309.937 353.348 309.232Z" fill="black"/>
</g>
</g>
<path d="M959.074 81.207V104.4H1040.86V407.867H1064.05V104.4H1145.84V81.207H959.074Z" fill="black"/>
<path d="M1341.21 81.207V314.605C1341.21 333.811 1334.38 350.25 1320.71 363.922C1307.03 377.594 1290.51 384.43 1271.14 384.43C1251.94 384.43 1235.5 377.594 1221.83 363.922C1208.16 350.25 1201.32 333.811 1201.32 314.605V81.207H1177.88V314.605C1177.88 340.322 1187 362.294 1205.23 380.523C1223.46 398.753 1245.43 407.867 1271.14 407.867C1296.86 407.867 1318.91 398.753 1337.31 380.523C1355.54 362.294 1364.65 340.322 1364.65 314.605V81.207H1341.21Z" fill="black"/>
<path d="M1532.92 81.207L1477.5 214.264L1422.08 81.207H1396.69L1464.81 244.537L1396.69 407.867H1422.08L1477.5 274.811L1532.92 407.867H1558.07L1489.95 244.537L1558.07 81.207H1532.92Z" fill="black"/>
<path d="M1590.11 81.207V407.867H1753.44V384.43H1613.55V337.799H1706.81V314.605H1613.55V104.4H1753.44V81.207H1590.11Z" fill="black"/>
<path d="M1808.92 104.4C1847.49 104.4 1880.45 118.154 1907.79 145.66C1935.14 173.004 1948.81 205.963 1948.81 244.537C1948.81 283.111 1935.14 316.07 1907.79 343.414C1880.45 370.758 1847.49 384.43 1808.92 384.43V104.4ZM1785.48 81.207V407.867H1808.92C1853.84 407.867 1892.25 391.917 1924.15 360.016C1956.22 328.115 1972.25 289.622 1972.25 244.537C1972.25 199.452 1956.22 160.96 1924.15 129.059C1892.25 97.1576 1853.84 81.207 1808.92 81.207H1785.48Z" fill="black"/>
<path d="M2167.62 384.43C2129.04 384.43 2096.09 370.758 2068.74 343.414C2041.4 316.07 2027.73 283.111 2027.73 244.537C2027.73 205.963 2041.4 173.004 2068.74 145.66C2096.09 118.154 2129.04 104.4 2167.62 104.4C2206.19 104.4 2239.15 118.154 2266.5 145.66C2294 173.004 2307.76 205.963 2307.76 244.537C2307.76 283.111 2294 316.07 2266.5 343.414C2239.15 370.758 2206.19 384.43 2167.62 384.43ZM2167.62 81.207C2122.53 81.207 2084.04 97.1576 2052.14 129.059C2020.24 160.96 2004.29 199.452 2004.29 244.537C2004.29 289.622 2020.24 328.115 2052.14 360.016C2084.04 391.917 2122.53 407.867 2167.62 407.867C2212.7 407.867 2251.2 391.917 2283.1 360.016C2315 328.115 2330.95 289.622 2330.95 244.537C2330.95 199.452 2315 160.96 2283.1 129.059C2251.2 97.1576 2212.7 81.207 2167.62 81.207Z" fill="black"/>
<path d="M1375.45 857.867C1330.37 857.867 1291.87 841.917 1259.97 810.016C1228.07 778.115 1212.12 739.622 1212.12 694.537C1212.12 649.452 1228.07 610.96 1259.97 579.059C1291.87 547.158 1330.37 531.207 1375.45 531.207V554.4C1336.88 554.4 1303.92 568.154 1276.57 595.66C1249.23 623.004 1235.56 655.963 1235.56 694.537C1235.56 733.111 1249.23 766.07 1276.57 793.414C1303.92 820.758 1336.88 834.43 1375.45 834.43V857.867Z" fill="black"/>
<path d="M1570.82 531.207V764.605C1570.82 783.811 1563.99 800.25 1550.31 813.922C1536.64 827.594 1520.12 834.43 1500.75 834.43C1481.55 834.43 1465.11 827.594 1451.44 813.922C1437.77 800.25 1430.93 783.811 1430.93 764.605V531.207H1407.49V764.605C1407.49 790.322 1416.61 812.294 1434.84 830.523C1453.07 848.753 1475.04 857.867 1500.75 857.867C1526.47 857.867 1548.52 848.753 1566.92 830.523C1585.15 812.294 1594.26 790.322 1594.26 764.605V531.207H1570.82Z" fill="black"/>
<path d="M1649.74 764.605V554.4H1661.21C1690.18 554.4 1714.92 564.736 1735.43 585.406C1756.1 605.914 1766.44 630.654 1766.44 659.625C1766.44 688.434 1756.1 713.173 1735.43 733.844C1714.92 754.352 1690.18 764.605 1661.21 764.605H1649.74ZM1626.3 531.207V857.867H1649.74V787.799H1661.21C1696.69 787.799 1726.97 775.266 1752.03 750.201C1777.1 725.136 1789.63 694.944 1789.63 659.625C1789.63 624.143 1777.1 593.87 1752.03 568.805C1726.97 543.74 1696.69 531.207 1661.21 531.207H1626.3Z" fill="black"/>
<path d="M1985 857.867C1939.92 857.867 1901.42 841.917 1869.52 810.016C1837.62 778.115 1821.67 739.622 1821.67 694.537C1821.67 649.452 1837.62 610.96 1869.52 579.059C1901.42 547.158 1939.92 531.207 1985 531.207V554.4C1946.43 554.4 1913.47 568.154 1886.12 595.66C1858.78 623.004 1845.11 655.963 1845.11 694.537C1845.11 733.111 1858.78 766.07 1886.12 793.414C1913.47 820.758 1946.43 834.43 1985 834.43V857.867Z" fill="black"/>
<path d="M2119.83 526.812L2017.04 857.867H2041.46L2055.86 811.236H2183.55L2198.2 857.867H2222.61L2119.83 526.812ZM2119.83 605.426L2176.47 787.799H2063.19L2119.83 605.426Z" fill="black"/>
<path d="M2391.12 531.207L2277.84 731.891V531.207H2254.41V857.867H2277.84V779.254L2377.7 857.867H2415.54L2289.32 758.746L2417.98 531.207H2391.12Z" fill="black"/>
<path d="M2449.78 531.207V857.867H2613.11V834.43H2473.21V787.799H2566.48V764.605H2473.21V554.4H2613.11V531.207H2449.78Z" fill="black"/>
<path d="M2740.12 647.662C2741.91 648.15 2743.94 648.639 2746.22 649.127C2769.17 654.173 2786.02 659.706 2796.76 665.729C2811.9 674.192 2823.86 686.48 2832.65 702.594C2841.27 718.219 2845.59 734.983 2845.59 752.887C2845.59 781.858 2835.33 806.598 2814.83 827.105C2794.32 847.613 2769.5 857.867 2740.36 857.867C2711.39 857.867 2686.65 847.613 2666.14 827.105C2645.64 806.598 2635.38 781.858 2635.38 752.887H2658.82C2658.82 775.348 2666.8 794.553 2682.75 810.504C2698.7 826.454 2717.9 834.43 2740.36 834.43C2762.99 834.43 2782.36 826.454 2798.47 810.504C2814.42 794.553 2822.39 775.348 2822.39 752.887C2822.39 731.077 2814.34 712.604 2798.22 697.467C2788.13 687.864 2767.71 679.482 2736.95 672.32C2707.32 665.322 2687.22 651.243 2676.64 630.084C2671.27 619.179 2669.32 607.135 2670.78 593.951C2672.25 581.093 2676.64 569.618 2683.97 559.527C2691.29 549.273 2701.14 541.624 2713.51 536.578C2725.71 531.533 2738.17 529.905 2750.86 531.695C2756.07 532.346 2761.03 533.567 2765.75 535.357C2778.94 540.566 2789.76 549.273 2798.22 561.48C2806.53 573.85 2810.68 587.034 2810.68 601.031H2787.24C2787.24 585.081 2780.81 572.385 2767.95 562.945C2755.09 553.668 2741.1 551.471 2725.96 556.354C2710.82 561.236 2700.81 571.327 2695.93 586.627C2690.88 602.577 2693.65 616.656 2704.23 628.863C2711.72 637.327 2723.68 643.593 2740.12 647.662Z" fill="black"/>
<defs>
<linearGradient id="paint0_linear_190_437" x1="334.751" y1="216.379" x2="212.898" y2="171.409" gradientUnits="userSpaceOnUse">
<stop stop-color="#FF8A00"/>
<stop offset="1" stop-color="#FF5E2B"/>
</linearGradient>
<linearGradient id="paint1_linear_190_437" x1="526.234" y1="295.438" x2="455.878" y2="227.984" gradientUnits="userSpaceOnUse">
<stop stop-color="#FFE296"/>
<stop offset="0.321728" stop-color="#FFC531"/>
<stop offset="0.778613" stop-color="#FF7218"/>
<stop offset="1" stop-color="#FF6F31"/>
</linearGradient>
<clipPath id="clip0_190_437">
<rect width="939.075" height="939.075" fill="white"/>
</clipPath>
</defs>
</svg>
