<svg width="2846" height="940" viewBox="0 0 2846 940" fill="none" xmlns="http://www.w3.org/2000/svg">
<g clip-path="url(#clip0_1959_311)">
<mask id="mask0_1959_311" style="mask-type:alpha" maskUnits="userSpaceOnUse" x="0" y="0" width="940" height="940">
<circle cx="469.538" cy="469.688" r="469.538" fill="#D9D9D9"/>
</mask>
<g mask="url(#mask0_1959_311)">
<path d="M0 0.150391V939.225H939.075V0.150391H0Z" fill="#009CA7"/>
<path d="M352.152 797.081L619.319 939.226H939.074V404.892L482.684 163.55L452.279 755.146L352.152 797.081Z" fill="#007478"/>
<path d="M375.555 800.904C369.614 800.747 362.597 800.068 359.142 799.316C349.631 797.248 346.833 794.608 347.081 790.981C347.33 787.355 355.486 781.39 359.142 777.926C367.741 769.779 413.934 745.814 419.613 743.11C423.36 741.326 432.669 738.033 434.845 738.033C436.295 738.033 446.47 748.247 450.076 751.814C453.798 753.99 462.509 756.858 466.033 759.793C481.906 773.011 473.904 765.911 493.596 775.75C512.133 785.012 519.95 788.104 544.868 796.002C550.711 797.855 559.196 800.958 559.599 801.136C560.236 801.417 385.894 801.179 375.555 800.904Z" fill="#FEB81C"/>
<path d="M542.415 798.019C515.061 789.176 500.521 783.464 482.849 774.616C467.531 766.947 457.641 761.026 447.179 753.26C434.739 744.026 431.761 742.219 427.59 736.582C425.43 733.664 422.515 729.625 419.613 725.851C416.71 722.076 413.085 716.421 410.909 712.795C408.733 709.168 405.831 704.091 402.205 697.563C398.578 691.035 383.47 658.591 376.96 643.306C360.244 604.059 348.643 555.9 342.26 499.26C339.243 472.488 334.025 426.146 332.574 408.739C331.124 391.331 331.693 292.167 330.398 286.886C330.398 259.306 343.829 287.225 349.982 286.885C358.81 286.398 368.84 286.885 378.269 286.885C387.699 286.885 408.468 281.708 412.359 283.984C419.613 283.984 467.03 291.714 471.11 300.667C475.259 309.772 458.629 370.12 462.406 399.31C467.22 436.513 449.035 465.655 460.23 512.459C471.786 560.767 481.045 606.562 496.496 637.939C506.556 658.368 505.714 669.973 517.53 681.458C531.021 694.572 538.663 701.601 544.663 700.701C550.663 699.801 552.012 698.609 554.523 692.719C557.034 686.828 558.365 685.833 561.049 672.029C567.032 641.264 572.652 609.853 572.655 583.54C572.655 579.717 574.919 572.558 576.281 575.562C578.546 576.91 577.133 586.824 578.796 598.316C587.215 656.517 591.867 679.909 601.135 710.627C609.136 737.149 615.604 755.299 620.628 765.331C626.91 777.873 636.587 788.476 644.461 797.657C645.838 799.263 645.912 801.109 645.912 801.284C645.912 801.459 625.535 801.307 601.667 801.284L579.97 801.26L558.272 801.237L542.415 798.016L542.415 798.019Z" fill="white"/>
<path d="M642.895 798.054C629.791 782.637 616.904 765.053 609.393 744.431C602.421 725.289 594.675 691.369 591.321 675.825C586.51 653.525 581.286 618.109 576.247 580.93C574.991 571.661 576.548 541.062 576.247 562.506C575.764 596.731 570.794 639.935 564.678 670.578C561.612 685.937 558.991 692.213 555.974 695.964C553.199 699.414 549.241 703.777 544.755 703.874C539.346 703.99 532.025 697.434 523.335 690.887C502.534 675.218 488.767 635.763 476.189 603.849C463.61 571.935 458.056 547.999 451.528 497.226C445 446.454 447.35 429.047 451.528 394.231C455.706 359.416 474.738 318.073 463.133 301.391C451.528 284.708 423.966 287.61 402.207 287.61C380.447 287.61 379.41 287.167 356.511 287.61C345.321 287.826 347.082 287.61 339.104 285.434C331.125 283.258 330.4 279.631 330.4 279.631C330.4 279.631 328.95 270.927 327.498 262.224C326.046 253.52 316.618 234.752 306.464 220.155C296.309 205.558 275.275 194.77 268.022 191.868C260.769 188.967 207.095 175.186 192.589 175.186C178.082 175.186 173.624 177.813 173.73 175.186C173.888 171.31 188.617 161.755 202.018 160.68C224.503 158.876 271.648 163.642 289.056 166.544C306.463 169.445 343.313 146.687 356.511 142.546C369.709 138.406 384.798 138.194 400.03 138.194C415.262 138.194 437.608 141.221 457.33 148.349C477.052 155.477 486.022 158.625 499.131 166.544C510.092 173.164 520.171 184.121 531.748 201.999C542.563 218.7 552.473 240.801 566.269 278.987C583.41 326.43 609.913 426.023 646.986 582.304C663.217 650.727 674.386 694.558 678.105 704.429C680.074 709.656 682.587 712.82 688.898 718.019C694.956 723.009 716.739 739.341 738.549 755.245C761.577 772.036 765.346 776.055 765.346 783.817C765.346 788.349 765.204 791.822 760.934 796.466C757.833 799.839 755.636 799.839 752.503 800.352C750.498 800.681 726.27 800.959 698.663 800.97L645.912 801.135L642.895 798.054Z" fill="#1C1C20"/>
<path d="M276 178.812C250.614 171.559 231.031 170.109 221.602 171.559C212.172 173.01 217.25 178.812 220.151 179.538C223.052 180.263 229.58 182.439 249.889 187.516C270.198 192.593 273.099 194.044 285.43 201.297C297.76 208.55 323.146 222.331 326.773 217.98C330.399 213.628 331.125 211.452 323.871 202.023C316.618 192.593 301.387 186.066 276 178.812Z" fill="url(#paint0_linear_1959_311)"/>
<path d="M488.517 227.409C460.955 220.156 465.307 250.619 461.68 263.675C458.054 276.73 447.174 290.511 459.505 297.765C471.835 305.018 507.376 305.743 520.431 297.039C533.487 288.335 558.148 268.752 550.895 259.323C543.641 249.894 516.079 234.662 488.517 227.409Z" fill="url(#paint1_linear_1959_311)"/>
<path d="M385.084 195.342C391.251 195.342 396.25 190.343 396.25 184.176C396.25 178.009 391.251 173.01 385.084 173.01C378.917 173.01 373.918 178.009 373.918 184.176C373.918 190.343 378.917 195.342 385.084 195.342Z" fill="black"/>
<path d="M353.348 309.383C354.769 308.678 358.324 309.383 361.878 310.792C365.433 312.2 372.541 315.722 374.674 317.131C376.807 318.54 382.494 324.175 382.494 324.175C382.494 324.175 385.337 324.88 388.892 324.88C392.446 324.88 395.29 324.175 395.29 324.175C395.29 324.175 400.977 318.54 403.11 317.131C405.242 315.722 412.351 312.2 415.906 310.792C419.46 309.383 422.304 309.383 424.436 310.087C426.569 310.792 427.28 321.358 427.28 329.811C427.28 338.263 427.28 349.534 425.858 350.238C424.436 350.943 419.46 349.534 415.906 348.125C412.351 346.716 406.664 343.194 403.11 341.081C399.555 338.968 395.29 336.15 395.29 336.15C395.29 336.15 393.157 335.446 388.892 335.446C384.627 335.446 382.494 336.15 382.494 336.15C382.494 336.15 377.518 338.968 374.674 341.081C371.831 343.194 366.144 346.716 363.3 348.125C360.456 349.534 355.48 350.943 354.058 350.238C352.637 349.534 351.215 339.672 351.215 331.219C351.215 322.767 351.926 310.087 353.348 309.383Z" fill="black"/>
</g>
</g>
<path d="M959.074 81.3574V104.551H1040.86V408.018H1064.05V104.551H1145.84V81.3574H959.074Z" fill="#F4F4F4"/>
<path d="M1341.21 81.3574V314.756C1341.21 333.962 1334.38 350.4 1320.71 364.072C1307.03 377.744 1290.51 384.58 1271.14 384.58C1251.94 384.58 1235.5 377.744 1221.83 364.072C1208.16 350.4 1201.32 333.962 1201.32 314.756V81.3574H1177.88V314.756C1177.88 340.472 1187 362.445 1205.23 380.674C1223.46 398.903 1245.43 408.018 1271.14 408.018C1296.86 408.018 1318.91 398.903 1337.31 380.674C1355.54 362.445 1364.65 340.472 1364.65 314.756V81.3574H1341.21Z" fill="#F4F4F4"/>
<path d="M1532.92 81.3574L1477.5 214.414L1422.08 81.3574H1396.69L1464.81 244.688L1396.69 408.018H1422.08L1477.5 274.961L1532.92 408.018H1558.07L1489.95 244.688L1558.07 81.3574H1532.92Z" fill="#F4F4F4"/>
<path d="M1590.11 81.3574V408.018H1753.44V384.58H1613.55V337.949H1706.81V314.756H1613.55V104.551H1753.44V81.3574H1590.11Z" fill="#F4F4F4"/>
<path d="M1808.92 104.551C1847.49 104.551 1880.45 118.304 1907.79 145.811C1935.14 173.154 1948.81 206.113 1948.81 244.688C1948.81 283.262 1935.14 316.221 1907.79 343.564C1880.45 370.908 1847.49 384.58 1808.92 384.58V104.551ZM1785.48 81.3574V408.018H1808.92C1853.84 408.018 1892.25 392.067 1924.15 360.166C1956.22 328.265 1972.25 289.772 1972.25 244.688C1972.25 199.603 1956.22 161.11 1924.15 129.209C1892.25 97.3079 1853.84 81.3574 1808.92 81.3574H1785.48Z" fill="#F4F4F4"/>
<path d="M2167.62 384.58C2129.04 384.58 2096.09 370.908 2068.74 343.564C2041.4 316.221 2027.73 283.262 2027.73 244.688C2027.73 206.113 2041.4 173.154 2068.74 145.811C2096.09 118.304 2129.04 104.551 2167.62 104.551C2206.19 104.551 2239.15 118.304 2266.5 145.811C2294 173.154 2307.76 206.113 2307.76 244.688C2307.76 283.262 2294 316.221 2266.5 343.564C2239.15 370.908 2206.19 384.58 2167.62 384.58ZM2167.62 81.3574C2122.53 81.3574 2084.04 97.3079 2052.14 129.209C2020.24 161.11 2004.29 199.603 2004.29 244.688C2004.29 289.772 2020.24 328.265 2052.14 360.166C2084.04 392.067 2122.53 408.018 2167.62 408.018C2212.7 408.018 2251.2 392.067 2283.1 360.166C2315 328.265 2330.95 289.772 2330.95 244.688C2330.95 199.603 2315 161.11 2283.1 129.209C2251.2 97.3079 2212.7 81.3574 2167.62 81.3574Z" fill="#F4F4F4"/>
<path d="M1375.45 858.018C1330.37 858.018 1291.87 842.067 1259.97 810.166C1228.07 778.265 1212.12 739.772 1212.12 694.688C1212.12 649.603 1228.07 611.11 1259.97 579.209C1291.87 547.308 1330.37 531.357 1375.45 531.357V554.551C1336.88 554.551 1303.92 568.304 1276.57 595.811C1249.23 623.154 1235.56 656.113 1235.56 694.688C1235.56 733.262 1249.23 766.221 1276.57 793.564C1303.92 820.908 1336.88 834.58 1375.45 834.58V858.018Z" fill="#F4F4F4"/>
<path d="M1570.82 531.357V764.756C1570.82 783.962 1563.99 800.4 1550.31 814.072C1536.64 827.744 1520.12 834.58 1500.75 834.58C1481.55 834.58 1465.11 827.744 1451.44 814.072C1437.77 800.4 1430.93 783.962 1430.93 764.756V531.357H1407.49V764.756C1407.49 790.472 1416.61 812.445 1434.84 830.674C1453.07 848.903 1475.04 858.018 1500.75 858.018C1526.47 858.018 1548.52 848.903 1566.92 830.674C1585.15 812.445 1594.26 790.472 1594.26 764.756V531.357H1570.82Z" fill="#F4F4F4"/>
<path d="M1649.74 764.756V554.551H1661.21C1690.18 554.551 1714.92 564.886 1735.43 585.557C1756.1 606.064 1766.44 630.804 1766.44 659.775C1766.44 688.584 1756.1 713.324 1735.43 733.994C1714.92 754.502 1690.18 764.756 1661.21 764.756H1649.74ZM1626.3 531.357V858.018H1649.74V787.949H1661.21C1696.69 787.949 1726.97 775.417 1752.03 750.352C1777.1 725.286 1789.63 695.094 1789.63 659.775C1789.63 624.294 1777.1 594.02 1752.03 568.955C1726.97 543.89 1696.69 531.357 1661.21 531.357H1626.3Z" fill="#F4F4F4"/>
<path d="M1985 858.018C1939.92 858.018 1901.42 842.067 1869.52 810.166C1837.62 778.265 1821.67 739.772 1821.67 694.688C1821.67 649.603 1837.62 611.11 1869.52 579.209C1901.42 547.308 1939.92 531.357 1985 531.357V554.551C1946.43 554.551 1913.47 568.304 1886.12 595.811C1858.78 623.154 1845.11 656.113 1845.11 694.688C1845.11 733.262 1858.78 766.221 1886.12 793.564C1913.47 820.908 1946.43 834.58 1985 834.58V858.018Z" fill="#F4F4F4"/>
<path d="M2119.83 526.963L2017.04 858.018H2041.46L2055.86 811.387H2183.55L2198.2 858.018H2222.61L2119.83 526.963ZM2119.83 605.576L2176.47 787.949H2063.19L2119.83 605.576Z" fill="#F4F4F4"/>
<path d="M2391.12 531.357L2277.84 732.041V531.357H2254.41V858.018H2277.84V779.404L2377.7 858.018H2415.54L2289.32 758.896L2417.98 531.357H2391.12Z" fill="#F4F4F4"/>
<path d="M2449.78 531.357V858.018H2613.11V834.58H2473.21V787.949H2566.48V764.756H2473.21V554.551H2613.11V531.357H2449.78Z" fill="#F4F4F4"/>
<path d="M2740.12 647.812C2741.91 648.301 2743.94 648.789 2746.22 649.277C2769.17 654.323 2786.02 659.857 2796.76 665.879C2811.9 674.342 2823.86 686.631 2832.65 702.744C2841.27 718.369 2845.59 735.133 2845.59 753.037C2845.59 782.008 2835.33 806.748 2814.83 827.256C2794.32 847.764 2769.5 858.018 2740.36 858.018C2711.39 858.018 2686.65 847.764 2666.14 827.256C2645.64 806.748 2635.38 782.008 2635.38 753.037H2658.82C2658.82 775.498 2666.8 794.704 2682.75 810.654C2698.7 826.605 2717.9 834.58 2740.36 834.58C2762.99 834.58 2782.36 826.605 2798.47 810.654C2814.42 794.704 2822.39 775.498 2822.39 753.037C2822.39 731.227 2814.34 712.754 2798.22 697.617C2788.13 688.014 2767.71 679.632 2736.95 672.471C2707.32 665.472 2687.22 651.393 2676.64 630.234C2671.27 619.329 2669.32 607.285 2670.78 594.102C2672.25 581.243 2676.64 569.769 2683.97 559.678C2691.29 549.424 2701.14 541.774 2713.51 536.729C2725.71 531.683 2738.17 530.055 2750.86 531.846C2756.07 532.497 2761.03 533.717 2765.75 535.508C2778.94 540.716 2789.76 549.424 2798.22 561.631C2806.53 574.001 2810.68 587.184 2810.68 601.182H2787.24C2787.24 585.231 2780.81 572.536 2767.95 563.096C2755.09 553.818 2741.1 551.621 2725.96 556.504C2710.82 561.387 2700.81 571.478 2695.93 586.777C2690.88 602.728 2693.65 616.807 2704.23 629.014C2711.72 637.477 2723.68 643.743 2740.12 647.812Z" fill="#F4F4F4"/>
<defs>
<linearGradient id="paint0_linear_1959_311" x1="334.751" y1="216.529" x2="212.898" y2="171.559" gradientUnits="userSpaceOnUse">
<stop stop-color="#FF8A00"/>
<stop offset="1" stop-color="#FF5E2B"/>
</linearGradient>
<linearGradient id="paint1_linear_1959_311" x1="526.234" y1="295.589" x2="455.878" y2="228.134" gradientUnits="userSpaceOnUse">
<stop stop-color="#FFE296"/>
<stop offset="0.321728" stop-color="#FFC531"/>
<stop offset="0.778613" stop-color="#FF7218"/>
<stop offset="1" stop-color="#FF6F31"/>
</linearGradient>
<clipPath id="clip0_1959_311">
<rect width="939.075" height="939.075" fill="white" transform="translate(0 0.150391)"/>
</clipPath>
</defs>
</svg>
