<svg width="761" height="66" viewBox="0 0 761 66" fill="none" xmlns="http://www.w3.org/2000/svg">
<path d="M710.11 4.5V12.4307H701V16.3591H710.11V24.2157H742.781V55.6422H750.041V65.5H753.74V55.6422H761V37.1865L753.74 29.2558V12.4307H734.493L727.164 4.5H710.11ZM713.74 8.42831H725.658L729.356 12.4307H713.74V8.42831ZM713.74 16.3591H750.041V51.7139H746.411V20.2874H713.74V16.3591ZM753.74 34.8147L757.37 38.8171V51.7139H753.74V34.8147ZM744.63 4.5V8.42831H757.37V22.2145H761V4.5H744.63Z" fill="black"/>
<path d="M714 28.5V0.500001H663.324V8.5179H589.457V6.51342H581V14.5313H589.457V12.5268H626.589L635.046 20.5447H680.238V28.5H714ZM709.771 24.4911H684.466V20.5447H701.314V8.5179H667.552V4.50895H709.771V24.4911ZM663.324 16.5358H636.764L632.535 12.5268H663.324V16.5358ZM697.086 16.5358H667.552V12.5268H697.086V16.5358Z" fill="black"/>
<path d="M563.913 0L572.856 8.4H578.585V4.2H592V16.8H578.585V12.6H559.441L550.498 21H504.943V16.8H548.681L553.153 12.6H518.358V8.4H566.498L562.026 4.2H496V0H563.913ZM587.528 8.4H583.057V12.6H587.528V8.4Z" fill="black"/>
<path d="M50.8907 4.5V12.4307H60.0003V16.3591H50.8907V24.2157H18.2195V55.6422H10.9592V65.5H7.26058V55.6422H0.000305176V37.1865L7.26058 29.2558V12.4307H26.5072L33.8359 4.5H50.8907ZM47.2606 8.42831H35.3428L31.6441 12.4307H47.2606V8.42831ZM47.2606 16.3591H10.9592V51.7139H14.5893V20.2874H47.2606V16.3591ZM7.26058 34.8147L3.63044 38.8171V51.7139H7.26058V34.8147ZM16.3702 4.5V8.42831H3.63044V22.2145H0.000305176V4.5H16.3702Z" fill="black"/>
<path d="M47.0003 28.5V0.500001H97.6764V8.5179H171.543V6.51342H180V14.5313H171.543V12.5268H134.412L125.955 20.5447H80.7624V28.5H47.0003ZM51.2288 24.4911H76.5338V20.5447H59.6858V8.5179H93.4479V4.50895H51.2288V24.4911ZM97.6764 16.5358H124.237L128.465 12.5268H97.6764V16.5358ZM63.9144 16.5358H93.4479V12.5268H63.9144V16.5358Z" fill="black"/>
<path d="M197.088 0L188.144 8.4H182.415V4.2H169V16.8H182.415V12.6H201.559L210.502 21H256.057V16.8H212.319L207.847 12.6H242.642V8.4H194.502L198.974 4.2H265V0H197.088ZM173.472 8.4H177.944V12.6H173.472V8.4Z" fill="black"/>
<path d="M389.13 8.4C388.678 6.78125 387.751 5.44688 386.35 4.39688C384.903 3.34688 383.297 2.82188 381.534 2.82188C379.725 2.82188 378.097 3.34688 376.65 4.39688C375.294 5.44688 374.367 6.78125 373.87 8.4H323V12.6H373.87C374.367 14.2625 375.294 15.5969 376.65 16.6031C378.097 17.6531 379.725 18.1781 381.534 18.1781C383.297 18.1781 384.903 17.6531 386.35 16.6031C387.751 15.5969 388.678 14.2625 389.13 12.6H440V8.4H389.13ZM372.852 0H329.511V4.2H372.852V0ZM329.511 21H372.852V16.8H329.511V21ZM433.557 0H390.148V4.2H433.557V0ZM390.148 21H433.557V16.8H390.148V21Z" fill="black"/>
</svg>
