<svg width="761" height="66" viewBox="0 0 761 66" fill="none" xmlns="http://www.w3.org/2000/svg">
<path d="M710.109 61V53.0693H701V49.1409H710.109V41.2843H742.781V9.85784H750.041V0H753.739V9.85784H761V28.3135L753.739 36.2442V53.0693H734.493L727.164 61H710.109ZM713.739 57.0717H725.657L729.356 53.0693H713.739V57.0717ZM713.739 49.1409H750.041V13.7861H746.411V45.2126H713.739V49.1409ZM753.739 30.6853L757.37 26.6829V13.7861H753.739V30.6853ZM744.63 61V57.0717H757.37V43.2855H761V61H744.63Z" fill="black"/>
<path d="M714 37V65H663.324V56.9821H589.457V58.9866H581V50.9687H589.457V52.9732H626.588L635.045 44.9553H680.238V37H714ZM709.771 41.0089H684.466V44.9553H701.314V56.9821H667.552V60.9911H709.771V41.0089ZM663.324 48.9642H636.763L632.535 52.9732H663.324V48.9642ZM697.086 48.9642H667.552V52.9732H697.086V48.9642Z" fill="black"/>
<path d="M563.912 65.5L572.856 57.1H578.585V61.3H592V48.7H578.585V52.9H559.441L550.498 44.5H504.943V48.7H548.681L553.153 52.9H518.358V57.1H566.498L562.026 61.3H496V65.5H563.912ZM587.528 57.1H583.056V52.9H587.528V57.1Z" fill="black"/>
<path d="M50.8904 61V53.0693H60V49.1409H50.8904V41.2843H18.2192V9.85784H10.9589V0H7.26027V9.85784H0V28.3135L7.26027 36.2442V53.0693H26.5069L33.8356 61H50.8904ZM47.2603 57.0717H35.3425L31.6438 53.0693H47.2603V57.0717ZM47.2603 49.1409H10.9589V13.7861H14.589V45.2126H47.2603V49.1409ZM7.26027 30.6853L3.63014 26.6829V13.7861H7.26027V30.6853ZM16.3699 61V57.0717H3.63014V43.2855H0V61H16.3699Z" fill="black"/>
<path d="M47 37V65H97.6761V56.9821H171.543V58.9866H180V50.9687H171.543V52.9732H134.411L125.954 44.9553H80.762V37H47ZM51.2285 41.0089H76.5335V44.9553H59.6855V56.9821H93.4476V60.9911H51.2285V41.0089ZM97.6761 48.9642H124.236L128.465 52.9732H97.6761V48.9642ZM63.9141 48.9642H93.4476V52.9732H63.9141V48.9642Z" fill="black"/>
<path d="M197.087 65.5L188.144 57.1H182.415V61.3H169V48.7H182.415V52.9H201.559L210.502 44.5H256.057V48.7H212.319L207.847 52.9H242.642V57.1H194.502L198.974 61.3H265V65.5H197.087ZM173.472 57.1H177.943V52.9H173.472V57.1Z" fill="black"/>
<path d="M389.13 57.1C388.678 58.7187 387.751 60.0531 386.349 61.1031C384.902 62.1531 383.297 62.6781 381.534 62.6781C379.725 62.6781 378.097 62.1531 376.65 61.1031C375.294 60.0531 374.367 58.7187 373.869 57.1H323V52.9H373.869C374.367 51.2375 375.294 49.9031 376.65 48.8969C378.097 47.8469 379.725 47.3219 381.534 47.3219C383.297 47.3219 384.902 47.8469 386.349 48.8969C387.751 49.9031 388.678 51.2375 389.13 52.9H440V57.1H389.13ZM372.852 65.5H329.511V61.3H372.852V65.5ZM329.511 44.5H372.852V48.7H329.511V44.5ZM433.556 65.5H390.148V61.3H433.556V65.5ZM390.148 44.5H433.556V48.7H390.148V44.5Z" fill="black"/>
</svg>
