<svg width="1056" height="33" viewBox="0 0 1056 33" fill="none" xmlns="http://www.w3.org/2000/svg">
<path fill-rule="evenodd" clip-rule="evenodd" d="M1056 33H0V28H1056V33Z" fill="black"/>
<path d="M594 33L594 28.2752L585.451 28.2752L561.735 4.72484L537.945 4.72484L533.262 4.83987e-06L521.738 3.83248e-06L516.98 4.72483L493.265 4.72483L469.475 28.2752L461 28.2752L461 33L594 33ZM507.539 14.1745L498.023 14.1745L483.749 28.2752L476.24 28.2752L495.198 9.44966L512.222 9.44966L507.539 14.1745ZM564.486 28.2752L490.44 28.2752L499.956 18.8993L555.044 18.8993L564.486 28.2752ZM578.76 28.2752L571.251 28.2752L556.977 14.1745L547.461 14.1745L542.703 9.44967L559.728 9.44967L578.76 28.2752ZM540.77 14.1745L514.23 14.1745L523.746 4.72483L531.254 4.72484L540.77 14.1745Z" fill="black"/>
</svg>
