<svg width="1000" height="1000" viewBox="0 0 1000 1000" fill="none" xmlns="http://www.w3.org/2000/svg" version="1.1" xmlns:xlink="http://www.w3.org/1999/xlink" xmlns:svgjs="http://svgjs.com/svgjs">
<mask id="mask0_2_368" style="mask-type:alpha" maskUnits="userSpaceOnUse" x="0" y="0" width="1000" height="1000">
<circle cx="500" cy="500" r="500" fill="#D9D9D9"></circle>
</mask>
<g mask="url(#mask0_2_368)">
<path d="M0 0V1000H1000V0H0Z" fill="#5CA2B1"></path>
<path d="M375 848.633L659.5 1000H1000V431L514.001 174L481.623 803.978L375 848.633Z" fill="#537F88"></path>
<path d="M399.92 852.705C393.594 852.537 386.122 851.814 382.443 851.013C372.314 848.811 369.335 846 369.599 842.138C369.864 838.276 378.549 831.924 382.443 828.235C391.599 819.56 440.789 794.04 446.837 791.161C450.827 789.261 460.74 785.754 463.057 785.754C464.601 785.754 475.436 796.63 479.277 800.43C483.239 802.747 492.516 805.8 496.269 808.926C513.171 823.001 504.65 815.441 525.619 825.918C545.359 835.781 553.683 839.074 580.218 847.484C586.441 849.457 595.476 852.762 595.905 852.951C596.583 853.25 410.93 852.997 399.92 852.705Z" fill="#FFB800"></path>
<path d="M577.607 849.632C548.478 840.216 532.994 834.132 514.176 824.711C497.864 816.544 487.332 810.239 476.191 801.969C462.945 792.136 459.774 790.211 455.332 784.21C453.031 781.102 449.928 776.801 446.837 772.782C443.746 768.762 439.885 762.741 437.568 758.879C435.251 755.017 432.162 749.61 428.3 742.659C424.438 735.708 408.349 701.159 401.417 684.882C383.617 643.088 371.263 591.805 364.466 531.491C361.253 502.981 355.697 453.633 354.152 435.096C352.607 416.559 353.213 310.962 351.835 305.337C351.835 275.969 366.136 305.699 372.689 305.337C382.09 304.819 392.771 305.337 402.811 305.337C412.852 305.337 434.97 299.825 439.113 302.248C446.837 302.248 497.331 310.48 501.675 320.013C506.094 329.709 488.385 393.972 492.407 425.055C497.533 464.672 478.168 495.705 490.09 545.546C502.395 596.988 512.255 645.753 528.708 679.167C539.421 700.921 538.525 713.278 551.107 725.509C565.473 739.473 574.714 751.283 581.103 750.325C587.493 749.367 590.142 744.912 592.816 738.64C595.49 732.367 594.592 730.167 597.45 715.468C603.82 682.708 609.805 649.258 609.808 621.239C609.808 617.167 612.219 609.543 613.67 612.742C616.081 614.178 614.577 624.735 616.347 636.973C625.313 698.95 630.267 723.86 640.136 756.571C648.656 784.813 655.543 804.14 660.893 814.823C667.583 828.179 677.888 839.47 686.273 849.247C687.74 850.957 687.818 852.922 687.818 853.109C687.818 853.295 666.119 853.133 640.703 853.109L617.597 853.084L594.492 853.059L577.607 849.628L577.607 849.632Z" fill="white"></path>
<path d="M684.604 849.669C670.65 833.252 656.928 814.527 648.93 792.568C641.505 772.184 633.256 736.063 629.685 719.51C624.561 695.764 618.999 658.05 613.633 618.459C612.295 608.588 613.953 576.005 613.633 598.84C613.118 635.286 607.826 681.292 601.313 713.923C598.048 730.279 595.257 736.962 592.044 740.957C589.09 744.63 584.874 749.276 580.098 749.379C574.337 749.503 566.542 742.521 557.288 735.55C535.138 718.864 520.478 676.849 507.083 642.865C493.689 608.88 487.774 583.391 480.823 529.325C473.871 475.259 476.374 456.722 480.823 419.648C485.271 382.574 505.538 338.549 493.18 320.784C480.823 303.02 451.472 306.109 428.301 306.109C405.13 306.109 404.026 305.638 379.641 306.109C367.725 306.339 369.601 306.109 361.104 303.792C352.608 301.475 351.836 297.613 351.836 297.613C351.836 297.613 350.291 288.344 348.746 279.076C347.2 269.807 337.16 249.822 326.347 234.278C315.534 218.734 293.135 207.246 285.411 204.156C277.687 201.067 220.531 186.392 205.084 186.392C189.636 186.392 184.888 189.19 185.002 186.392C185.17 182.265 200.855 172.089 215.125 170.944C239.068 169.024 289.273 174.099 307.81 177.189C326.346 180.278 365.587 156.043 379.641 151.634C393.696 147.225 409.763 147 425.983 147C442.203 147 465.999 150.223 487.001 157.813C508.003 165.404 517.554 168.757 531.514 177.189C543.186 184.239 553.919 195.906 566.247 214.944C577.763 232.728 588.316 256.263 603.008 296.927C621.261 347.448 649.483 453.502 688.961 619.923C706.246 692.785 718.139 739.459 722.099 749.971C724.196 755.537 726.872 758.906 733.593 764.443C740.044 769.756 763.24 787.148 786.465 804.083C810.987 821.964 815 826.243 815 834.509C815 839.336 814.849 843.034 810.302 847.979C806.999 851.57 804.661 851.57 801.324 852.117C799.189 852.467 773.39 852.763 743.991 852.775L687.818 852.951L684.604 849.669Z" fill="#1C1C20"></path>
<path d="M293.907 190.254C266.874 182.53 246.02 180.985 235.979 182.53C225.938 184.075 231.344 190.254 234.434 191.026C237.523 191.798 244.475 194.115 266.101 199.522C287.728 204.929 290.817 206.473 303.948 214.197C317.078 221.921 344.111 236.596 347.973 231.962C351.835 227.328 352.607 225.01 344.883 214.97C337.16 204.929 320.94 197.977 293.907 190.254Z" fill="url(#paint0_linear_2_368)"></path>
<path d="M520.212 242.003C490.862 234.279 495.496 266.719 491.634 280.621C487.773 294.524 476.187 309.199 489.318 316.923C502.448 324.647 540.294 325.419 554.197 316.151C568.1 306.882 594.36 286.028 586.637 275.987C578.913 265.946 549.563 249.726 520.212 242.003Z" fill="url(#paint1_linear_2_368)"></path>
<path d="M410.068 207.856C416.635 207.856 421.959 202.532 421.959 195.965C421.959 189.398 416.635 184.075 410.068 184.075C403.501 184.075 398.177 189.398 398.177 195.965C398.177 202.532 403.501 207.856 410.068 207.856Z" fill="black"></path>
<path d="M376.271 329.294C377.785 328.544 381.57 329.294 385.355 330.794C389.14 332.295 396.71 336.045 398.981 337.545C401.252 339.046 407.308 345.047 407.308 345.047C407.308 345.047 410.336 345.797 414.121 345.797C417.907 345.797 420.935 345.047 420.935 345.047C420.935 345.047 426.991 339.046 429.262 337.545C431.533 336.045 439.103 332.295 442.888 330.794C446.673 329.294 449.701 329.294 451.972 330.044C454.243 330.795 455 342.046 455 351.047C455 360.049 455 372.05 453.486 372.8C451.972 373.551 446.673 372.05 442.888 370.55C439.103 369.05 433.047 365.299 429.262 363.049C425.477 360.799 420.935 357.798 420.935 357.798C420.935 357.798 418.664 357.048 414.121 357.048C409.579 357.048 407.308 357.798 407.308 357.798C407.308 357.798 402.009 360.799 398.981 363.049C395.953 365.299 389.897 369.05 386.869 370.55C383.841 372.05 378.542 373.551 377.028 372.8C375.514 372.05 374 361.549 374 352.548C374 343.546 374.757 330.044 376.271 329.294Z" fill="black"></path>
</g>
<defs>
<linearGradient id="SvgjsLinearGradient1001" x1="356.469" y1="230.417" x2="226.71" y2="182.53" gradientUnits="userSpaceOnUse">
<stop stop-color="#FF8A00"></stop>
<stop offset="1" stop-color="#FF5E2B"></stop>
</linearGradient>
<linearGradient id="SvgjsLinearGradient1000" x1="560.376" y1="314.606" x2="485.455" y2="242.775" gradientUnits="userSpaceOnUse">
<stop stop-color="#FFE296"></stop>
<stop offset="0.321728" stop-color="#FFC531"></stop>
<stop offset="0.778613" stop-color="#FF7218"></stop>
<stop offset="1" stop-color="#FF6F31"></stop>
</linearGradient>
</defs>
</svg>