<svg width="637" height="46" viewBox="0 0 637 46" fill="none" xmlns="http://www.w3.org/2000/svg">
<path d="M36.1792 0V13.5938H13.5938V27.1167H0V45.2417H18.125V31.6479H27.1167V40.7104H72.3584V31.6479H110.874V27.1167H98.2007L71.084 0H36.1792ZM40.7104 4.53125H69.1724L91.8286 27.1167H54.3042V13.5938H40.7104V4.53125ZM31.6479 18.125H49.7729V27.1167H31.6479V18.125ZM18.125 18.125H27.1167V27.1167H18.125V18.125ZM31.6479 31.6479H67.8979V36.1792H31.6479V31.6479ZM4.53125 31.6479H13.5938V40.7104H4.53125V31.6479Z" fill="black"/>
<path d="M227 31.5375V27.077H257.09V6.6864H311.395V18.0145H324.917V6.6864H379.222V27.077H409.312V31.5375H227ZM261.622 27.077H374.69V11.2177H329.449V18.0145H355.008V22.5458H281.304V18.0145H306.863V11.2177H261.622V27.077ZM281.304 36.0687H355.008V40.6H281.304V36.0687Z" fill="black"/>
<path d="M565.79 0L538.603 27.1167H526V31.6479H564.445V40.7104H609.687V31.6479H618.749V45.2417H636.874V27.1167H623.28V13.5938H600.624V0H565.79ZM567.631 4.53125H596.093V13.5938H582.57V27.1167H545.045L567.631 4.53125ZM609.687 18.125H618.749V27.1167H609.687V18.125ZM587.101 18.125H605.155V27.1167H587.101V18.125ZM623.28 31.6479H632.343V40.7104H623.28V31.6479ZM568.976 31.6479H605.155V36.1792H568.976V31.6479Z" fill="black"/>
</svg>
