<svg width="1056" height="33" viewBox="0 0 1056 33" fill="none" xmlns="http://www.w3.org/2000/svg">
<path fill-rule="evenodd" clip-rule="evenodd" d="M1056 5H0V-3.8147e-06H1056V5Z" fill="black"/>
<path d="M461 0V4.72483L469.549 4.72483L493.265 28.2752L517.055 28.2752L521.738 33H533.262L538.02 28.2752H561.735L585.525 4.72483L594 4.72483V0L461 0ZM547.461 18.8255H556.977L571.251 4.72483L578.76 4.72483L559.802 23.5503H542.778L547.461 18.8255ZM490.514 4.72483L564.56 4.72483L555.044 14.1007L499.956 14.1007L490.514 4.72483ZM476.24 4.72483L483.749 4.72483L498.023 18.8255L507.539 18.8255L512.297 23.5503L495.272 23.5503L476.24 4.72483ZM514.23 18.8255L540.77 18.8255L531.254 28.2752H523.746L514.23 18.8255Z" fill="black"/>
</svg>
