<svg width="100" height="100" viewBox="0 0 100 100" fill="none" xmlns="http://www.w3.org/2000/svg">
<g clip-path="url(#clip0_389_8218)">
<path d="M76.7294 82.9491L73.675 81.453C73.1686 81.205 72.5574 81.4245 72.3245 81.9379L71.3651 84.0525C71.1566 84.5121 71.3232 85.055 71.7536 85.3185L73.835 86.5929C74.226 86.8322 74.7295 86.7751 75.057 86.4544L76.9893 84.5615C77.4825 84.0784 77.3494 83.2528 76.7294 82.9491Z" fill="#EBC384" stroke="#DEB470"/>
<path d="M40.5541 91.0956C40.9511 91.6771 41.0327 92.4233 40.9664 93.0719C40.8766 93.9515 40.0012 94.6455 39.1801 94.3174C38.9154 94.2116 38.5882 94.0279 38.1361 93.7192C36.7594 92.7793 37.2198 90.409 37.6565 89.9722C38.591 89.0377 39.6142 89.7189 40.5541 91.0956Z" fill="#E7E1B4" stroke="#DCD49D"/>
<path d="M12.4067 69.2386L8.15984 71.3009C7.647 71.5499 7.4458 72.1767 7.71786 72.6777L9.04477 75.1212C9.32579 75.6387 9.99092 75.8025 10.4802 75.4748L14.4433 72.8196C14.8773 72.5289 15.0143 71.953 14.7578 71.4978L13.7147 69.6472C13.4552 69.1867 12.8822 69.0078 12.4067 69.2386Z" fill="#E4D295" stroke="#DDCB91"/>
<path d="M86.2932 80.0961C86.6225 80.5786 86.7348 81.06 86.7257 81.4908C86.7069 82.3749 85.7403 83.0501 84.9192 82.722C84.6544 82.6162 84.3272 82.4325 83.8751 82.1238C82.4984 81.1839 82.7161 79.5999 83.1528 79.1632C84.0874 78.2287 85.3532 78.7194 86.2932 80.0961Z" fill="#80708E" stroke="#6E5E7D"/>
<path d="M98.2933 46.0961C98.8563 46.9207 98.5762 47.8582 98.067 48.4871C97.75 48.8786 97.2343 49.0515 96.7333 48.9997C96.3231 48.9572 95.971 48.8216 95.5002 48.5C94.5 47.8171 95.0634 45.9369 95.5001 45.5002C96.2003 44.7999 97.8864 45.5001 98.2933 46.0961Z" fill="#80708E" stroke="#6E5E7D"/>
<path d="M71.2931 6.09606C71.8326 6.88637 71.6387 7.52225 71.3485 8.00356C71.1417 8.34655 70.8279 8.61628 70.4631 8.78158C69.8347 9.06634 68.9169 9.31631 68.1528 8.79463C66.7761 7.85472 67.716 5.59988 68.1527 5.16317C69.0873 4.22863 70.3532 4.71936 71.2931 6.09606Z" fill="#80708E" stroke="#6E5E7D"/>
<path d="M94.1807 52.9112C93.8191 53.5154 93.1759 53.9023 92.5592 54.114C91.7229 54.4012 90.7259 53.8973 90.6796 53.0143C90.6646 52.7296 90.6943 52.3556 90.785 51.8157C91.0612 50.1718 93.4063 49.5961 93.9858 49.8095C95.2261 50.2663 95.0366 51.4808 94.1807 52.9112Z" fill="#E7E1B4" stroke="#DCD49D"/>
<path d="M50.3296 11.6264C49.6376 11.4959 49.0523 11.026 48.6405 10.5205C48.0821 9.83493 48.2103 8.72522 49.0229 8.37662C49.2849 8.26423 49.6462 8.16278 50.1842 8.06135C51.8223 7.75249 53 8.67917 53 9.29678C53 10.6184 51.9677 11.9353 50.3296 11.6264Z" fill="#E7E1B4" stroke="#DCD49D"/>
<path d="M82.8795 16.8464L79.5039 14.8773C78.8372 14.4884 78 14.9692 78 15.741V18.1972C78 18.3946 78.0584 18.5877 78.1679 18.7519L79.3234 20.4851C79.6734 21.0101 80.4163 21.0837 80.8625 20.6375L83.0827 18.4173C83.5464 17.9536 83.4459 17.1768 82.8795 16.8464Z" fill="#EBC384" stroke="#DEB470"/>
<path d="M30.8661 90.9857L29.53 88.848C29.2373 88.3797 28.6203 88.2373 28.152 88.53L26.3568 89.652C25.7301 90.0437 25.7301 90.9563 26.3568 91.348L28.5697 92.7311C28.8402 92.9001 29.175 92.93 29.4711 92.8116L30.3895 92.4442C30.9681 92.2128 31.1964 91.5142 30.8661 90.9857Z" fill="#EBC384" stroke="#DEB470"/>
<path d="M15.2865 25.5716L10.989 24.4973C10.1808 24.2952 9.49431 25.1122 9.83268 25.8735L10.8943 28.2622C10.9636 28.4182 11.0717 28.5537 11.2081 28.6561L12.3062 29.4796C12.7043 29.7782 13.2614 29.7386 13.6133 29.3867L15.7511 27.2489C16.3007 26.6993 16.0406 25.7602 15.2865 25.5716Z" fill="#EBC384" stroke="#DEB470"/>
<path d="M12.1949 45.1017C11.8333 45.7059 11.1901 46.0927 10.5734 46.3045C9.7371 46.5916 8.74008 46.0878 8.69376 45.2048C8.67883 44.9201 8.70848 44.546 8.7992 44.0061C9.07544 42.3622 10.4444 42.3523 11.024 42.5658C12.2642 43.0225 13.0508 43.6712 12.1949 45.1017Z" fill="#80708E" stroke="#6E5E7D"/>
<path d="M37.5987 3.0247L35.46 4.45983C35.0161 4.75773 34.885 5.35212 35.1624 5.80913L35.8366 6.91973C36.0721 7.30761 36.5392 7.48834 36.9744 7.35995L41.8782 5.91325C42.8232 5.63448 42.8381 4.30145 41.8997 4.00157L38.4603 2.90253C38.1695 2.8096 37.8522 2.8546 37.5987 3.0247Z" fill="#E4D295" stroke="#DDCB91"/>
<path d="M84.5987 27.0247L82.46 28.4598C82.0161 28.7577 81.885 29.3521 82.1624 29.8091L82.8366 30.9197C83.0721 31.3076 83.5392 31.4883 83.9744 31.3599L88.8782 29.9132C89.8232 29.6345 89.8381 28.3014 88.8997 28.0016L85.4603 26.9025C85.1695 26.8096 84.8522 26.8546 84.5987 27.0247Z" fill="#E4D295" stroke="#DDCB91"/>
<path d="M51.1466 94.3281L49.6308 95.3452C49.1231 95.6859 49.0373 96.3985 49.4497 96.8499L50.2462 97.7221C50.4098 97.9012 50.633 98.0148 50.8741 98.0416L52.9326 98.2703C53.7659 98.3629 54.3363 97.4506 53.8883 96.742L52.549 94.624C52.2482 94.1482 51.6141 94.0144 51.1466 94.3281Z" fill="#E4D295" stroke="#DDCB91"/>
</g>
<defs>
<clipPath id="clip0_389_8218">
<rect width="100" height="100" fill="white"/>
</clipPath>
</defs>
</svg>
