<svg width="162" height="188" viewBox="0 0 162 188" fill="none" xmlns="http://www.w3.org/2000/svg">
<path d="M0 107.772C0 105.625 1.7402 103.885 3.88686 103.885H151.587C153.734 103.885 155.474 105.625 155.474 107.772V107.772C155.474 109.918 153.734 111.658 151.587 111.658H3.88686C1.74021 111.658 0 109.918 0 107.772V107.772Z" fill="#512D1E"/>
<path d="M6.80225 111.172H148.013L126.288 187H28.527L6.80225 111.172Z" fill="black"/>
<path d="M22.749 112.354L35.8549 186.875" stroke="#1F1F1F" stroke-width="2"/>
<path d="M36.3525 112.354L43.9971 186.875" stroke="#1F1F1F" stroke-width="2"/>
<path d="M49.0044 112.354L54.1819 186.451" stroke="#1F1F1F" stroke-width="2"/>
<path d="M62.5498 112.354L64.8316 186.875" stroke="#1F1F1F" stroke-width="2"/>
<path d="M87.8262 112.354L87.8262 186.027" stroke="#1F1F1F" stroke-width="2"/>
<path d="M75.1938 111.93L75.1938 186.123" stroke="#1F1F1F" stroke-width="2"/>
<path d="M100.387 112.354L98.4163 186.027" stroke="#1F1F1F" stroke-width="2"/>
<path d="M113.429 112.354L107.958 186.027" stroke="#1F1F1F" stroke-width="2"/>
<path d="M125.571 113.201L116.524 186.875" stroke="#1F1F1F" stroke-width="2"/>
<path d="M134.043 112.354L121.415 186.875" stroke="#1F1F1F" stroke-width="2"/>
<path d="M143.727 111.93L125.301 186.876" stroke="#1F1F1F" stroke-width="2"/>
<path d="M14.4893 111.93L31.3651 186.876" stroke="#1F1F1F" stroke-width="2"/>
<path d="M9.83706 96.3366L9.67203 96.0891C5.90098 90.4325 8.86034 82.7469 15.4512 81.0802L22.3372 79.3389C26.6509 78.248 28.156 72.8895 25.0411 69.7121C21.9761 66.5856 23.3768 61.3181 27.5899 60.1269L39.052 56.8862C41.7829 56.1141 42.4639 52.5576 40.2113 50.8313C37.9187 49.0744 38.6728 45.4463 41.4755 44.7484L52.2117 42.075C55.8577 41.1671 57.0242 36.5646 54.2507 34.0297L53.2423 33.1081C51.5827 31.5912 51.7155 28.938 53.5183 27.5944L60.6976 22.2441C63.2747 20.3236 65.3573 17.8168 66.7729 14.9314C69.6581 9.05057 75.4075 5.10581 81.9326 4.53007L87.6008 4.02993C87.7509 4.01669 87.8584 4.17148 87.7938 4.30747L85.2167 9.72536C82.7585 14.8936 85.2376 21.0594 90.5894 23.0874L101.329 27.1572C104.58 28.3889 104.991 32.8205 102.023 34.6291C98.8274 36.576 99.6076 41.4192 103.253 42.2642L114.562 44.8858C117.344 45.5307 118.157 49.1002 115.928 50.8861C113.764 52.6204 114.455 56.0742 117.121 56.8413L127.685 59.8822C132.006 61.1258 133.225 66.6654 129.826 69.6083C126.329 72.6366 127.74 78.3537 132.245 79.4067L140.205 81.2675C146.889 82.8299 149.916 90.6463 146.109 96.3577C144.272 99.1125 141.165 100.79 137.855 100.79H18.1576C14.814 100.79 11.6917 99.1186 9.83706 96.3366Z" fill="#EDBAC8" stroke="#E6B2C0" stroke-width="7"/>
</svg>
