<svg width="167" height="146" viewBox="0 0 167 146" fill="none" xmlns="http://www.w3.org/2000/svg">
<path d="M0 63.5C0 61.2909 1.79086 59.5 4 59.5H156C158.209 59.5 160 61.2909 160 63.5V63.5C160 65.7091 158.209 67.5 156 67.5H4C1.79086 67.5 0 65.7091 0 63.5V63.5Z" fill="#E3BB8B"/>
<path d="M7 67H152.321L129.964 145.036H29.3571L7 67Z" fill="black"/>
<path d="M23.4106 68.2158L36.8981 144.907" stroke="#1F1F1F" stroke-width="2"/>
<path d="M37.4106 68.2158L45.2777 144.907" stroke="#1F1F1F" stroke-width="2"/>
<path d="M50.4307 68.2158L55.7589 144.471" stroke="#1F1F1F" stroke-width="2"/>
<path d="M64.3704 68.2158L66.7186 144.907" stroke="#1F1F1F" stroke-width="2"/>
<path d="M90.3823 68.2158L90.3823 144.034" stroke="#1F1F1F" stroke-width="2"/>
<path d="M77.3823 67.7793L77.3823 144.132" stroke="#1F1F1F" stroke-width="2"/>
<path d="M103.309 68.2158L101.281 144.034" stroke="#1F1F1F" stroke-width="2"/>
<path d="M116.73 68.2158L111.1 144.034" stroke="#1F1F1F" stroke-width="2"/>
<path d="M129.226 69.0879L119.915 144.906" stroke="#1F1F1F" stroke-width="2"/>
<path d="M137.944 68.2158L124.948 144.907" stroke="#1F1F1F" stroke-width="2"/>
<path d="M147.911 67.7793L128.948 144.907" stroke="#1F1F1F" stroke-width="2"/>
<path d="M14.9106 67.7793L32.2777 144.907" stroke="#1F1F1F" stroke-width="2"/>
<path d="M10.2099 52.1544L9.84863 51.6125C6.01906 45.8681 9.02434 38.0632 15.7175 36.3707L25.7324 33.8381C28.9546 33.0233 30.0789 29.0206 27.7522 26.6471C24.8608 23.6977 27.3767 18.7636 31.462 19.3716L46.9931 21.683C66.2383 24.5472 85.7874 24.7317 105.083 22.2314L127.9 19.2748C132.026 18.7401 134.333 23.8886 131.188 26.6121C128.595 28.8564 129.641 33.0935 132.98 33.874L144.455 36.5564C151.252 38.1453 154.371 46.0329 150.499 51.8409L150.29 52.1544C148.435 54.9364 145.313 56.6074 141.97 56.6074H18.5304C15.1869 56.6074 12.0646 54.9364 10.2099 52.1544Z" fill="#FFFDFB" stroke="#FAF6F2" stroke-width="7"/>
<path d="M61.3822 9.63197L51.3632 8.41014C49.5755 8.19214 48 9.5872 48 11.3881V17.6264C48 18.1969 48.1627 18.7557 48.469 19.237L49.7118 21.1899C50.6677 22.6921 52.714 23.0359 54.1084 21.9286L62.8847 14.9592C64.9697 13.3035 64.0251 9.95427 61.3822 9.63197Z" fill="#EDA767" stroke="#E29B5A" stroke-width="2"/>
<path d="M57.1766 11.5482L39.3988 8.70382C37.2968 8.3675 35.523 10.2665 36.0017 12.3407L37.5733 19.1512C37.8339 20.2803 38.7215 21.1584 39.8533 21.4068L55.2433 24.7851C56.9837 25.1671 58.6714 23.957 58.8682 22.1862L59.6842 14.8419C59.861 13.2508 58.7573 11.8012 57.1766 11.5482Z" fill="#EDA767" stroke="#E29B5A" stroke-width="2"/>
<path d="M80.3822 8.13197L70.3632 6.91014C68.5755 6.69214 67 8.0872 67 9.88808V16.1264C67 16.6969 67.1627 17.2557 67.469 17.737L68.7118 19.6899C69.6677 21.1921 71.714 21.5359 73.1084 20.4286L81.8847 13.4592C83.9697 11.8035 83.0251 8.45427 80.3822 8.13197Z" fill="#EDA767" stroke="#E29B5A" stroke-width="2"/>
<path d="M98.4644 7.11611L96.938 6.7345C95.3199 6.32997 93.6825 7.32295 93.2932 8.94481L91.2876 17.3017C91.1038 18.0675 91.2388 18.8752 91.6616 19.5397C92.8919 21.4729 95.7713 21.2878 96.7439 19.213L100.453 11.2998C101.255 9.59015 100.296 7.57406 98.4644 7.11611Z" fill="#EDA767" stroke="#E29B5A" stroke-width="2"/>
<path d="M116.274 7.26922L111.715 8.5269C110.658 8.81858 109.844 9.66406 109.593 10.7318L108.29 16.2691C108.104 17.0562 108.245 17.8847 108.679 18.5668L109.126 19.2694C110.264 21.0579 112.848 21.1338 114.089 19.4152L119.504 11.9177C121.163 9.62043 119.006 6.51565 116.274 7.26922Z" fill="#EDA767" stroke="#E29B5A" stroke-width="2"/>
<path d="M71.9879 22.1397L66.2419 9.37096C65.392 7.48221 62.9292 7.00249 61.4325 8.43413L55.2665 14.3321C54.0314 15.5135 54.0314 17.4865 55.2665 18.6679L63.3411 26.3915C64.0652 27.0841 65.0873 27.3695 66.0655 27.1521L69.9029 26.2994C71.7591 25.8869 72.7682 23.8737 71.9879 22.1397Z" fill="#EDA767" stroke="#E29B5A" stroke-width="2"/>
<path d="M103.222 22.6808L104.367 20.0382C105.002 18.5735 104.379 16.8682 102.949 16.1582L87.8343 8.65238C85.8401 7.66207 83.5 9.11274 83.5 11.3393V15.0316C83.5 16.2012 84.1797 17.2641 85.2414 17.7548L99.2108 24.2109C100.74 24.9178 102.552 24.2268 103.222 22.6808Z" fill="#EDA767" stroke="#E29B5A" stroke-width="2"/>
<path d="M87.9683 20.5438L86.9845 14.1495C86.7218 12.4416 85.0743 11.3083 83.3854 11.6734L70.6467 14.4277C69.1432 14.7528 68.1292 16.1624 68.299 17.6913L68.7035 21.3313C68.8723 22.8506 70.1565 24 71.6851 24H85.0032C86.8418 24 88.2479 22.3611 87.9683 20.5438Z" fill="#EDA767" stroke="#E29B5A" stroke-width="2"/>
<path d="M116.049 22.0261L118.888 19.3897C120.406 17.98 120.072 15.4924 118.236 14.5327L104.716 7.4651C102.645 6.38257 100.186 7.97867 100.332 10.3109L100.848 18.5627C100.936 19.9821 102.01 21.1442 103.418 21.3454L113.583 22.7976C114.479 22.9256 115.385 22.6421 116.049 22.0261Z" fill="#EDA767" stroke="#E29B5A" stroke-width="2"/>
<path d="M124.779 22.5907L128.342 15.7616C128.758 14.9632 128.794 14.0198 128.439 13.1921L125.511 6.3579C124.511 4.025 121.246 3.9105 120.085 6.16761L115.064 15.9312C114.438 17.1488 114.715 18.6359 115.739 19.5455L120.126 23.4453C121.585 24.7425 123.876 24.3219 124.779 22.5907Z" fill="#EDA767" stroke="#E29B5A" stroke-width="2"/>
</svg>
