<svg width="402" height="378" viewBox="0 0 402 378" fill="none" xmlns="http://www.w3.org/2000/svg">
<path d="M13.1666 102.328C13.5233 100.211 15.5285 98.784 17.6453 99.1408L163.292 123.687C165.409 124.043 166.835 126.049 166.479 128.165V128.165C166.122 130.282 164.117 131.709 162 131.352L16.3534 106.806C14.2366 106.45 12.8098 104.444 13.1666 102.328V102.328Z" fill="#ECD7AE"/>
<path d="M19.3091 106.812L158.556 130.279L124.532 201.443L28.1301 185.196L19.3091 106.812Z" fill="black"/>
<path d="M34.8369 110.628L35.376 186.292" stroke="#1F1F1F" stroke-width="2"/>
<path d="M48.252 112.889L43.4056 187.645" stroke="#1F1F1F" stroke-width="2"/>
<path d="M60.7275 114.992L53.519 188.919" stroke="#1F1F1F" stroke-width="2"/>
<path d="M74.0845 117.243L63.95 191.107" stroke="#1F1F1F" stroke-width="2"/>
<path d="M99.0093 121.443L86.7656 194.093" stroke="#1F1F1F" stroke-width="2"/>
<path d="M86.623 118.925L74.2931 192.086" stroke="#1F1F1F" stroke-width="2"/>
<path d="M111.396 123.531L97.2088 195.853" stroke="#1F1F1F" stroke-width="2"/>
<path d="M124.256 125.698L106.617 197.438" stroke="#1F1F1F" stroke-width="2"/>
<path d="M136.089 128.552L114.923 199.697" stroke="#1F1F1F" stroke-width="2"/>
<path d="M144.583 129.124L119.746 200.511" stroke="#1F1F1F" stroke-width="2"/>
<path d="M154.204 130.314L123.579 201.156" stroke="#1F1F1F" stroke-width="2"/>
<path d="M26.7627 108.837L30.9488 185.545" stroke="#1F1F1F" stroke-width="2"/>
<path d="M24.7674 92.6874L24.6458 92.4159C21.8672 86.2113 26.0627 79.1243 32.8389 78.5761L39.9185 78.0034C44.3535 77.6446 46.7282 72.6107 44.1847 68.9599C41.6819 65.3674 43.9385 60.406 48.291 59.9315L60.1322 58.6407C62.9535 58.3332 64.216 54.9393 62.2816 52.8626C60.313 50.7492 61.6595 47.2969 64.5392 47.0745L75.5704 46.2225C79.3165 45.9331 81.2317 41.5884 78.918 38.6279L78.0768 37.5515C76.6923 35.7799 77.2642 33.1856 79.2653 32.1604L87.2339 28.0776C90.0943 26.612 92.5645 24.4862 94.44 21.8762C98.2624 16.5566 104.587 13.6222 111.117 14.1388L116.79 14.5876C116.94 14.5995 117.02 14.77 116.934 14.8934L113.493 19.8077C110.21 24.4955 111.63 30.9876 116.57 33.8768L126.484 39.6748C129.485 41.4296 129.154 45.8679 125.926 47.1581C122.452 48.5469 122.416 53.4523 125.87 54.8913L136.586 59.3559C139.223 60.4543 139.431 64.1091 136.936 65.4998C134.514 66.8503 134.622 70.371 137.123 71.5704L147.035 76.3248C151.089 78.2691 151.371 83.9343 147.53 86.2714C143.578 88.6763 144.019 94.5484 148.287 96.3355L155.827 99.4932C162.158 102.145 163.844 110.356 159.141 115.355C156.872 117.766 153.53 118.904 150.265 118.353L32.2322 98.4612C28.9351 97.9056 26.1339 95.7389 24.7674 92.6874Z" fill="#F7F5F0" stroke="#F2F1ED" stroke-width="7"/>
<circle cx="94.3758" cy="38.6676" r="0.5" transform="rotate(9.5662 94.3758 38.6676)" fill="black" fill-opacity="0.58"/>
<circle cx="95.8382" cy="48.041" r="0.5" transform="rotate(9.5662 95.8382 48.041)" fill="black" fill-opacity="0.58"/>
<circle cx="105.555" cy="38.5234" r="0.5" transform="rotate(9.5662 105.555 38.5234)" fill="black" fill-opacity="0.58"/>
<circle cx="87.2845" cy="50.6559" r="0.5" transform="rotate(9.5662 87.2845 50.6559)" fill="black" fill-opacity="0.58"/>
<circle cx="51.5418" cy="88.2385" r="0.5" transform="rotate(9.5662 51.5418 88.2385)" fill="black" fill-opacity="0.58"/>
<circle cx="63.0647" cy="80.0394" r="0.5" transform="rotate(9.5662 63.0647 80.0394)" fill="black" fill-opacity="0.58"/>
<circle cx="71.7625" cy="88.6039" r="0.5" transform="rotate(9.5662 71.7625 88.6039)" fill="black" fill-opacity="0.58"/>
<circle cx="40.8499" cy="91.5071" r="0.5" transform="rotate(9.5662 40.8499 91.5071)" fill="black" fill-opacity="0.58"/>
<circle cx="85.0804" cy="87.8061" r="0.5" transform="rotate(9.5662 85.0804 87.8061)" fill="black" fill-opacity="0.58"/>
<circle cx="95.783" cy="78.4547" r="0.5" transform="rotate(9.5662 95.783 78.4547)" fill="black" fill-opacity="0.58"/>
<circle cx="90.3538" cy="80.5821" r="0.5" transform="rotate(9.5662 90.3538 80.5821)" fill="black" fill-opacity="0.58"/>
<circle cx="68.782" cy="100.271" r="0.5" transform="rotate(9.5662 68.782 100.271)" fill="black" fill-opacity="0.58"/>
<circle cx="86.3767" cy="98.1656" r="0.5" transform="rotate(9.5662 86.3767 98.1656)" fill="black" fill-opacity="0.58"/>
<circle cx="97.0686" cy="94.897" r="0.5" transform="rotate(9.5662 97.0686 94.897)" fill="black" fill-opacity="0.58"/>
<circle cx="97.0794" cy="88.8142" r="0.5" transform="rotate(9.5662 97.0794 88.8142)" fill="black" fill-opacity="0.58"/>
<circle cx="109.09" cy="83.7397" r="0.5" transform="rotate(9.5662 109.09 83.7397)" fill="black" fill-opacity="0.58"/>
<circle cx="109.765" cy="73.7125" r="0.5" transform="rotate(9.5662 109.765 73.7125)" fill="black" fill-opacity="0.58"/>
<circle cx="125.543" cy="76.3715" r="0.5" transform="rotate(9.5662 125.543 76.3715)" fill="black" fill-opacity="0.58"/>
<circle cx="120.092" cy="90.6644" r="0.5" transform="rotate(9.5662 120.092 90.6644)" fill="black" fill-opacity="0.58"/>
<circle cx="108.071" cy="101.822" r="0.5" transform="rotate(9.5662 108.071 101.822)" fill="black" fill-opacity="0.58"/>
<circle cx="117.943" cy="97.4008" r="0.5" transform="rotate(9.5662 117.943 97.4008)" fill="black" fill-opacity="0.58"/>
<circle cx="129.61" cy="100.381" r="0.5" transform="rotate(9.5662 129.61 100.381)" fill="black" fill-opacity="0.58"/>
<circle cx="134.562" cy="89.0466" r="0.5" transform="rotate(9.5662 134.562 89.0466)" fill="black" fill-opacity="0.58"/>
<circle cx="145.708" cy="107.151" r="0.5" transform="rotate(9.5662 145.708 107.151)" fill="black" fill-opacity="0.58"/>
<circle cx="124.336" cy="107.605" r="0.5" transform="rotate(9.5662 124.336 107.605)" fill="black" fill-opacity="0.58"/>
<circle cx="107.638" cy="68.2835" r="0.5" transform="rotate(9.5662 107.638 68.2835)" fill="black" fill-opacity="0.58"/>
<circle cx="100.913" cy="60.0513" r="0.5" transform="rotate(9.5662 100.913 60.0513)" fill="black" fill-opacity="0.58"/>
<circle cx="93.0242" cy="58.7218" r="0.5" transform="rotate(9.5662 93.0242 58.7218)" fill="black" fill-opacity="0.58"/>
<circle cx="107.838" cy="49.0491" r="0.5" transform="rotate(9.5662 107.838 49.0491)" fill="black" fill-opacity="0.58"/>
<circle cx="103.771" cy="25.0395" r="0.5" transform="rotate(9.5662 103.771 25.0395)" fill="black" fill-opacity="0.58"/>
<circle cx="112.092" cy="59.9072" r="0.5" transform="rotate(9.5662 112.092 59.9072)" fill="black" fill-opacity="0.58"/>
<circle cx="62.4329" cy="65.7355" r="0.5" transform="rotate(9.5662 62.4329 65.7355)" fill="black" fill-opacity="0.58"/>
<circle cx="84.116" cy="75.4744" r="0.5" transform="rotate(9.5662 84.116 75.4744)" fill="black" fill-opacity="0.58"/>
<circle cx="95.805" cy="66.2892" r="0.5" transform="rotate(9.5662 95.805 66.2892)" fill="black" fill-opacity="0.58"/>
<circle cx="77.8894" cy="64.284" r="0.5" transform="rotate(9.5662 77.8894 64.284)" fill="black" fill-opacity="0.58"/>
<path d="M105.271 298.355C105.141 296.212 106.773 294.37 108.915 294.24L256.345 285.302C258.488 285.172 260.33 286.803 260.46 288.946V288.946C260.59 291.089 258.958 292.931 256.816 293.061L109.386 302C107.243 302.13 105.401 300.498 105.271 298.355V298.355Z" fill="#512D1E"/>
<path d="M112.266 301.338L253.218 292.792L236.122 369.796L138.54 375.712L112.266 301.338Z" fill="black"/>
<path d="M128.255 301.552L145.847 375.144" stroke="#1F1F1F" stroke-width="2"/>
<path d="M141.834 300.729L153.974 374.651" stroke="#1F1F1F" stroke-width="2"/>
<path d="M154.462 299.963L164.115 373.612" stroke="#1F1F1F" stroke-width="2"/>
<path d="M167.983 299.143L174.771 373.39" stroke="#1F1F1F" stroke-width="2"/>
<path d="M193.213 297.614L197.672 371.152" stroke="#1F1F1F" stroke-width="2"/>
<path d="M180.578 297.955L185.068 372.012" stroke="#1F1F1F" stroke-width="2"/>
<path d="M205.751 296.853L208.242 370.512" stroke="#1F1F1F" stroke-width="2"/>
<path d="M218.768 296.064L217.766 369.934" stroke="#1F1F1F" stroke-width="2"/>
<path d="M230.94 296.175L226.368 370.262" stroke="#1F1F1F" stroke-width="2"/>
<path d="M239.345 294.817L231.25 369.966" stroke="#1F1F1F" stroke-width="2"/>
<path d="M248.986 293.808L235.129 369.731" stroke="#1F1F1F" stroke-width="2"/>
<path d="M119.985 301.629L141.365 375.416" stroke="#1F1F1F" stroke-width="2"/>
<path d="M114.398 286.346L114.218 286.109C110.112 280.691 112.601 272.84 119.079 270.778L125.847 268.623C130.086 267.273 131.264 261.833 127.963 258.85C124.714 255.915 125.794 250.572 129.927 249.128L141.172 245.2C143.851 244.264 144.316 240.673 141.963 239.086C139.568 237.471 140.101 233.804 142.856 232.937L153.411 229.619C156.995 228.492 157.881 223.828 154.96 221.465L153.897 220.606C152.149 219.193 152.121 216.536 153.839 215.086L160.681 209.311C163.137 207.238 165.065 204.61 166.303 201.644C168.827 195.599 174.327 191.314 180.805 190.344L186.433 189.502C186.582 189.48 186.699 189.628 186.642 189.768L184.398 195.331C182.257 200.639 185.105 206.643 190.569 208.344L201.536 211.756C204.855 212.789 205.534 217.188 202.68 219.172C199.609 221.309 200.68 226.096 204.37 226.719L215.817 228.651C218.633 229.127 219.66 232.641 217.544 234.558C215.488 236.42 216.388 239.826 219.095 240.43L229.824 242.826C234.212 243.806 235.764 249.262 232.55 252.405C229.242 255.639 230.996 261.261 235.557 262.039L243.615 263.415C250.381 264.57 253.876 272.189 250.421 278.12C248.755 280.981 245.755 282.843 242.45 283.043L122.973 290.287C119.635 290.489 116.418 289.01 114.398 286.346Z" fill="#7E5E50" stroke="#6F5144" stroke-width="7"/>
<path d="M223.479 167.644C222.848 165.592 224 163.417 226.052 162.787L367.238 119.406C369.29 118.776 371.465 119.928 372.096 121.98V121.98C372.726 124.032 371.574 126.206 369.522 126.837L228.336 170.218C226.284 170.848 224.109 169.696 223.479 167.644V167.644Z" fill="#ECD7AE"/>
<path d="M230.979 168.897L365.962 127.423L367.467 206.287L274.017 235L230.979 168.897Z" fill="black"/>
<path d="M246.57 165.344L280.985 232.73" stroke="#1F1F1F" stroke-width="2"/>
<path d="M259.574 161.349L288.769 230.338" stroke="#1F1F1F" stroke-width="2"/>
<path d="M271.667 157.633L298.38 226.942" stroke="#1F1F1F" stroke-width="2"/>
<path d="M284.615 153.654L308.684 224.219" stroke="#1F1F1F" stroke-width="2"/>
<path d="M308.777 146.23L330.416 216.655" stroke="#1F1F1F" stroke-width="2"/>
<path d="M296.577 149.535L318.368 220.455" stroke="#1F1F1F" stroke-width="2"/>
<path d="M320.784 142.541L340.539 213.545" stroke="#1F1F1F" stroke-width="2"/>
<path d="M333.25 138.711L349.659 210.742" stroke="#1F1F1F" stroke-width="2"/>
<path d="M345.106 135.955L358.096 209.036" stroke="#1F1F1F" stroke-width="2"/>
<path d="M352.955 132.656L362.771 207.6" stroke="#1F1F1F" stroke-width="2"/>
<path d="M362.088 129.406L366.487 206.458" stroke="#1F1F1F" stroke-width="2"/>
<path d="M238.55 167.364L276.694 234.048" stroke="#1F1F1F" stroke-width="2"/>
<path d="M229.523 153.825L229.293 153.637C224.026 149.337 224.598 141.122 230.409 137.593L236.479 133.906C240.282 131.596 240.147 126.032 236.237 123.909C232.389 121.821 232.18 116.374 235.858 113.998L245.862 107.534C248.246 105.994 247.853 102.394 245.192 101.405C242.485 100.399 242.14 96.7099 244.614 95.2196L254.092 89.5108C257.31 87.5721 257.073 82.8299 253.678 81.2215L252.443 80.6367C250.411 79.6742 249.759 77.0989 251.088 75.2851L256.379 68.0622C258.278 65.4694 259.533 62.4616 260.038 59.2876C261.069 52.8187 265.406 47.3593 271.474 44.8925L276.746 42.7496C276.885 42.6929 277.034 42.8093 277.012 42.9582L276.14 48.8941C275.308 54.5564 279.489 59.7221 285.2 60.0888L296.662 60.8246C300.13 61.0473 301.825 65.1627 299.519 67.7634C297.036 70.5629 299.205 74.9633 302.937 74.7004L314.517 73.8848C317.366 73.6842 319.192 76.8575 317.586 79.2192C316.026 81.5127 317.702 84.6111 320.475 84.5616L331.467 84.3653C335.962 84.2851 338.755 89.2222 336.37 93.0336C333.916 96.9556 336.944 102.006 341.56 101.69L349.715 101.13C356.563 100.661 361.753 107.243 359.791 113.821C358.844 116.994 356.367 119.509 353.202 120.482L238.784 155.638C235.588 156.62 232.113 155.94 229.523 153.825Z" fill="#ECBDC2" stroke="#E9B7BD" stroke-width="7"/>
</svg>
