<svg width="324" height="311" viewBox="0 0 324 311" fill="none" xmlns="http://www.w3.org/2000/svg">
<path d="M13.1666 102.328C13.5233 100.211 15.5285 98.784 17.6453 99.1408L163.292 123.687C165.409 124.043 166.835 126.049 166.479 128.165V128.165C166.122 130.282 164.117 131.709 162 131.352L16.3534 106.806C14.2366 106.45 12.8098 104.444 13.1666 102.328V102.328Z" fill="#ECD7AE"/>
<path d="M19.3091 106.812L158.556 130.279L124.532 201.443L28.1301 185.196L19.3091 106.812Z" fill="black"/>
<path d="M34.8369 110.628L35.376 186.292" stroke="#1F1F1F" stroke-width="2"/>
<path d="M48.252 112.889L43.4056 187.645" stroke="#1F1F1F" stroke-width="2"/>
<path d="M60.7275 114.992L53.519 188.919" stroke="#1F1F1F" stroke-width="2"/>
<path d="M74.0845 117.243L63.95 191.107" stroke="#1F1F1F" stroke-width="2"/>
<path d="M99.0093 121.443L86.7656 194.093" stroke="#1F1F1F" stroke-width="2"/>
<path d="M86.623 118.925L74.2931 192.086" stroke="#1F1F1F" stroke-width="2"/>
<path d="M111.396 123.531L97.2088 195.853" stroke="#1F1F1F" stroke-width="2"/>
<path d="M124.256 125.698L106.617 197.438" stroke="#1F1F1F" stroke-width="2"/>
<path d="M136.089 128.552L114.923 199.697" stroke="#1F1F1F" stroke-width="2"/>
<path d="M144.583 129.124L119.746 200.511" stroke="#1F1F1F" stroke-width="2"/>
<path d="M154.204 130.314L123.579 201.156" stroke="#1F1F1F" stroke-width="2"/>
<path d="M26.7627 108.837L30.9488 185.545" stroke="#1F1F1F" stroke-width="2"/>
<path d="M24.7674 92.6874L24.6458 92.4159C21.8672 86.2113 26.0627 79.1243 32.8389 78.5761L39.9185 78.0034C44.3535 77.6446 46.7282 72.6107 44.1847 68.9599C41.6819 65.3674 43.9385 60.406 48.291 59.9315L60.1322 58.6407C62.9535 58.3332 64.216 54.9393 62.2816 52.8626C60.313 50.7492 61.6595 47.2969 64.5392 47.0745L75.5704 46.2225C79.3165 45.9331 81.2317 41.5884 78.918 38.6279L78.0768 37.5515C76.6923 35.7799 77.2642 33.1856 79.2653 32.1604L87.2339 28.0776C90.0943 26.612 92.5645 24.4862 94.44 21.8762C98.2624 16.5566 104.587 13.6222 111.117 14.1388L116.79 14.5876C116.94 14.5995 117.02 14.77 116.934 14.8934L113.493 19.8077C110.21 24.4955 111.63 30.9876 116.57 33.8768L126.484 39.6748C129.485 41.4296 129.154 45.8679 125.926 47.1581C122.452 48.5469 122.416 53.4523 125.87 54.8913L136.586 59.3559C139.223 60.4543 139.431 64.1091 136.936 65.4998C134.514 66.8503 134.622 70.371 137.123 71.5704L147.035 76.3248C151.089 78.2691 151.371 83.9343 147.53 86.2714C143.578 88.6763 144.019 94.5484 148.287 96.3355L155.827 99.4932C162.158 102.145 163.844 110.356 159.141 115.355C156.872 117.766 153.53 118.904 150.265 118.353L32.2322 98.4612C28.9351 97.9056 26.1339 95.7389 24.7674 92.6874Z" fill="#F7F5F0" stroke="#F2F1ED" stroke-width="7"/>
<circle cx="94.3758" cy="38.6676" r="0.5" transform="rotate(9.5662 94.3758 38.6676)" fill="black" fill-opacity="0.58"/>
<circle cx="95.8382" cy="48.041" r="0.5" transform="rotate(9.5662 95.8382 48.041)" fill="black" fill-opacity="0.58"/>
<circle cx="105.555" cy="38.5234" r="0.5" transform="rotate(9.5662 105.555 38.5234)" fill="black" fill-opacity="0.58"/>
<circle cx="87.2845" cy="50.6559" r="0.5" transform="rotate(9.5662 87.2845 50.6559)" fill="black" fill-opacity="0.58"/>
<circle cx="51.5418" cy="88.2385" r="0.5" transform="rotate(9.5662 51.5418 88.2385)" fill="black" fill-opacity="0.58"/>
<circle cx="63.0647" cy="80.0394" r="0.5" transform="rotate(9.5662 63.0647 80.0394)" fill="black" fill-opacity="0.58"/>
<circle cx="71.7625" cy="88.6039" r="0.5" transform="rotate(9.5662 71.7625 88.6039)" fill="black" fill-opacity="0.58"/>
<circle cx="40.8499" cy="91.5071" r="0.5" transform="rotate(9.5662 40.8499 91.5071)" fill="black" fill-opacity="0.58"/>
<circle cx="85.0804" cy="87.8061" r="0.5" transform="rotate(9.5662 85.0804 87.8061)" fill="black" fill-opacity="0.58"/>
<circle cx="95.783" cy="78.4547" r="0.5" transform="rotate(9.5662 95.783 78.4547)" fill="black" fill-opacity="0.58"/>
<circle cx="90.3538" cy="80.5821" r="0.5" transform="rotate(9.5662 90.3538 80.5821)" fill="black" fill-opacity="0.58"/>
<circle cx="68.782" cy="100.271" r="0.5" transform="rotate(9.5662 68.782 100.271)" fill="black" fill-opacity="0.58"/>
<circle cx="86.3767" cy="98.1656" r="0.5" transform="rotate(9.5662 86.3767 98.1656)" fill="black" fill-opacity="0.58"/>
<circle cx="97.0686" cy="94.897" r="0.5" transform="rotate(9.5662 97.0686 94.897)" fill="black" fill-opacity="0.58"/>
<circle cx="97.0794" cy="88.8142" r="0.5" transform="rotate(9.5662 97.0794 88.8142)" fill="black" fill-opacity="0.58"/>
<circle cx="109.09" cy="83.7397" r="0.5" transform="rotate(9.5662 109.09 83.7397)" fill="black" fill-opacity="0.58"/>
<circle cx="109.765" cy="73.7125" r="0.5" transform="rotate(9.5662 109.765 73.7125)" fill="black" fill-opacity="0.58"/>
<circle cx="125.543" cy="76.3715" r="0.5" transform="rotate(9.5662 125.543 76.3715)" fill="black" fill-opacity="0.58"/>
<circle cx="120.092" cy="90.6644" r="0.5" transform="rotate(9.5662 120.092 90.6644)" fill="black" fill-opacity="0.58"/>
<circle cx="108.071" cy="101.822" r="0.5" transform="rotate(9.5662 108.071 101.822)" fill="black" fill-opacity="0.58"/>
<circle cx="117.943" cy="97.4008" r="0.5" transform="rotate(9.5662 117.943 97.4008)" fill="black" fill-opacity="0.58"/>
<circle cx="129.61" cy="100.381" r="0.5" transform="rotate(9.5662 129.61 100.381)" fill="black" fill-opacity="0.58"/>
<circle cx="134.562" cy="89.0466" r="0.5" transform="rotate(9.5662 134.562 89.0466)" fill="black" fill-opacity="0.58"/>
<circle cx="145.708" cy="107.151" r="0.5" transform="rotate(9.5662 145.708 107.151)" fill="black" fill-opacity="0.58"/>
<circle cx="124.336" cy="107.605" r="0.5" transform="rotate(9.5662 124.336 107.605)" fill="black" fill-opacity="0.58"/>
<circle cx="107.638" cy="68.2835" r="0.5" transform="rotate(9.5662 107.638 68.2835)" fill="black" fill-opacity="0.58"/>
<circle cx="100.913" cy="60.0513" r="0.5" transform="rotate(9.5662 100.913 60.0513)" fill="black" fill-opacity="0.58"/>
<circle cx="93.0242" cy="58.7218" r="0.5" transform="rotate(9.5662 93.0242 58.7218)" fill="black" fill-opacity="0.58"/>
<circle cx="107.838" cy="49.0491" r="0.5" transform="rotate(9.5662 107.838 49.0491)" fill="black" fill-opacity="0.58"/>
<circle cx="103.771" cy="25.0395" r="0.5" transform="rotate(9.5662 103.771 25.0395)" fill="black" fill-opacity="0.58"/>
<circle cx="112.092" cy="59.9072" r="0.5" transform="rotate(9.5662 112.092 59.9072)" fill="black" fill-opacity="0.58"/>
<circle cx="62.4329" cy="65.7355" r="0.5" transform="rotate(9.5662 62.4329 65.7355)" fill="black" fill-opacity="0.58"/>
<circle cx="84.116" cy="75.4744" r="0.5" transform="rotate(9.5662 84.116 75.4744)" fill="black" fill-opacity="0.58"/>
<circle cx="95.805" cy="66.2892" r="0.5" transform="rotate(9.5662 95.805 66.2892)" fill="black" fill-opacity="0.58"/>
<circle cx="77.8894" cy="64.284" r="0.5" transform="rotate(9.5662 77.8894 64.284)" fill="black" fill-opacity="0.58"/>
<path d="M157.28 231.358C157.15 229.216 158.782 227.373 160.925 227.244L308.354 218.305C310.497 218.175 312.339 219.807 312.469 221.949V221.949C312.599 224.092 310.968 225.934 308.825 226.064L161.395 235.003C159.252 235.133 157.41 233.501 157.28 231.358V231.358Z" fill="#512D1E"/>
<path d="M164.275 234.341L305.227 225.795L288.131 302.799L190.549 308.715L164.275 234.341Z" fill="black"/>
<path d="M180.264 234.555L197.856 308.147" stroke="#1F1F1F" stroke-width="2"/>
<path d="M193.843 233.732L205.984 307.655" stroke="#1F1F1F" stroke-width="2"/>
<path d="M206.472 232.966L216.124 306.615" stroke="#1F1F1F" stroke-width="2"/>
<path d="M219.992 232.147L226.78 306.394" stroke="#1F1F1F" stroke-width="2"/>
<path d="M245.222 230.617L249.681 304.156" stroke="#1F1F1F" stroke-width="2"/>
<path d="M232.587 230.958L237.077 305.015" stroke="#1F1F1F" stroke-width="2"/>
<path d="M257.76 229.857L260.252 303.515" stroke="#1F1F1F" stroke-width="2"/>
<path d="M270.777 229.068L269.775 302.937" stroke="#1F1F1F" stroke-width="2"/>
<path d="M282.949 229.179L278.377 303.265" stroke="#1F1F1F" stroke-width="2"/>
<path d="M291.354 227.82L283.259 302.969" stroke="#1F1F1F" stroke-width="2"/>
<path d="M300.995 226.811L287.138 302.734" stroke="#1F1F1F" stroke-width="2"/>
<path d="M171.994 234.632L193.375 308.419" stroke="#1F1F1F" stroke-width="2"/>
<path d="M166.407 219.349L166.228 219.112C162.121 213.694 164.61 205.843 171.088 203.781L177.856 201.626C182.096 200.276 183.274 194.836 179.972 191.853C176.724 188.918 177.803 183.575 181.936 182.131L193.181 178.203C195.86 177.267 196.325 173.676 193.972 172.089C191.577 170.474 192.11 166.807 194.866 165.941L205.42 162.623C209.005 161.496 209.891 156.831 206.969 154.469L205.906 153.61C204.158 152.196 204.13 149.54 205.848 148.089L212.691 142.314C215.147 140.241 217.074 137.613 218.312 134.647C220.836 128.603 226.336 124.317 232.815 123.348L238.442 122.505C238.591 122.483 238.708 122.631 238.652 122.771L236.407 128.335C234.266 133.642 237.114 139.647 242.579 141.347L253.545 144.76C256.864 145.792 257.543 150.191 254.689 152.176C251.618 154.313 252.69 159.1 256.379 159.722L267.826 161.655C270.642 162.13 271.67 165.644 269.553 167.561C267.498 169.424 268.397 172.829 271.104 173.434L281.833 175.83C286.221 176.809 287.774 182.265 284.559 185.408C281.251 188.643 283.006 194.264 287.566 195.042L295.624 196.418C302.391 197.573 305.885 205.192 302.43 211.123C300.764 213.984 297.764 215.846 294.46 216.047L174.982 223.29C171.645 223.493 168.427 222.014 166.407 219.349Z" fill="#7E5E50" stroke="#6F5144" stroke-width="7"/>
</svg>
