<svg width="162" height="169" viewBox="0 0 162 169" fill="none" xmlns="http://www.w3.org/2000/svg">
<path d="M0 88.8869C0 86.7402 1.7402 85 3.88686 85H151.587C153.734 85 155.474 86.7402 155.474 88.8869V88.8869C155.474 91.0335 153.734 92.7737 151.587 92.7737H3.88686C1.74021 92.7737 0 91.0335 0 88.8869V88.8869Z" fill="#785A48"/>
<path d="M6.80225 92.2881H148.013L126.288 168.116H28.527L6.80225 92.2881Z" fill="black"/>
<path d="M22.749 93.4707L35.8549 167.993" stroke="#1F1F1F" stroke-width="2"/>
<path d="M36.3525 93.4707L43.9971 167.992" stroke="#1F1F1F" stroke-width="2"/>
<path d="M49.0044 93.4707L54.1819 167.569" stroke="#1F1F1F" stroke-width="2"/>
<path d="M62.5498 93.4707L64.8316 167.992" stroke="#1F1F1F" stroke-width="2"/>
<path d="M87.8262 93.4707L87.8262 167.145" stroke="#1F1F1F" stroke-width="2"/>
<path d="M75.1938 93.046L75.1938 167.239" stroke="#1F1F1F" stroke-width="2"/>
<path d="M100.387 93.4707L98.4163 167.145" stroke="#1F1F1F" stroke-width="2"/>
<path d="M113.429 93.4707L107.958 167.145" stroke="#1F1F1F" stroke-width="2"/>
<path d="M125.571 94.3181L116.524 167.992" stroke="#1F1F1F" stroke-width="2"/>
<path d="M134.043 93.4707L121.415 167.992" stroke="#1F1F1F" stroke-width="2"/>
<path d="M143.727 93.046L125.301 167.992" stroke="#1F1F1F" stroke-width="2"/>
<path d="M14.4893 93.046L31.3651 167.992" stroke="#1F1F1F" stroke-width="2"/>
<path d="M22.7074 50.8357L36.328 48.4592C37.5738 48.2418 37.9934 46.6651 37.0204 45.8573L36.5845 45.4955C28.9516 39.1587 30.582 27.0191 39.6163 22.9208C41.8039 21.9284 44.1296 21.2745 46.5138 20.9814L50.9922 20.4308C61.0212 19.1979 70.5099 15.2007 78.3982 8.88579L79.9617 7.63413C83.6798 4.65761 88.3942 3.21321 93.1416 3.59608L98.5608 4.03312C99.1159 4.07788 99.3486 4.76463 98.9351 5.13764L90.0359 13.1644C89.4806 13.6653 89.1155 14.3429 89.0027 15.0823L88.9356 15.5219C88.4618 18.6264 90.8645 21.4236 94.0049 21.4236H94.5218C102.937 21.4236 111.148 24.0196 118.034 28.8576C122.093 31.7099 122.154 37.7053 118.152 40.6389L116.128 42.1232C115.155 42.8364 115.429 44.3567 116.59 44.6851L133.633 49.5077C141.398 51.7053 147.274 58.0753 148.838 65.9931C150.475 74.2813 144.132 82 135.684 82H18.8317C10.3445 82 4.17145 73.943 6.38004 65.7482C8.46119 58.0263 14.829 52.2103 22.7074 50.8357Z" fill="#F0E7E0" stroke="#ECDDD2" stroke-width="7"/>
</svg>
