<svg width="167" height="142" viewBox="0 0 167 142" fill="none" xmlns="http://www.w3.org/2000/svg">
<path d="M0 59.5C0 57.2909 1.79086 55.5 4 55.5H156C158.209 55.5 160 57.2909 160 59.5V59.5C160 61.7091 158.209 63.5 156 63.5H4C1.79086 63.5 0 61.7091 0 59.5V59.5Z" fill="#F8ECD4"/>
<path d="M7 63H152.321L129.964 141.036H29.3571L7 63Z" fill="black"/>
<path d="M23.4106 64.2158L36.8981 140.907" stroke="#1F1F1F" stroke-width="2"/>
<path d="M37.4106 64.2158L45.2777 140.907" stroke="#1F1F1F" stroke-width="2"/>
<path d="M50.4307 64.2158L55.7589 140.471" stroke="#1F1F1F" stroke-width="2"/>
<path d="M64.3704 64.2158L66.7186 140.907" stroke="#1F1F1F" stroke-width="2"/>
<path d="M90.3823 64.2158L90.3823 140.034" stroke="#1F1F1F" stroke-width="2"/>
<path d="M77.3823 63.7793L77.3823 140.132" stroke="#1F1F1F" stroke-width="2"/>
<path d="M103.309 64.2158L101.281 140.034" stroke="#1F1F1F" stroke-width="2"/>
<path d="M116.73 64.2158L111.1 140.034" stroke="#1F1F1F" stroke-width="2"/>
<path d="M129.226 65.0879L119.915 140.906" stroke="#1F1F1F" stroke-width="2"/>
<path d="M137.944 64.2158L124.948 140.907" stroke="#1F1F1F" stroke-width="2"/>
<path d="M147.911 63.7793L128.948 140.907" stroke="#1F1F1F" stroke-width="2"/>
<path d="M14.9106 63.7793L32.2777 140.907" stroke="#1F1F1F" stroke-width="2"/>
<path d="M10.2099 48.1544L9.84863 47.6125C6.01906 41.8681 9.02434 34.0632 15.7175 32.3707L25.7324 29.8381C28.9546 29.0233 30.0789 25.0206 27.7522 22.6471C24.8608 19.6977 27.3767 14.7636 31.462 15.3716L46.9931 17.683C66.2383 20.5472 85.7874 20.7317 105.083 18.2314L127.9 15.2748C132.026 14.7401 134.333 19.8886 131.188 22.6121C128.595 24.8564 129.641 29.0935 132.98 29.874L144.455 32.5564C151.252 34.1453 154.371 42.0329 150.499 47.8409L150.29 48.1544C148.435 50.9364 145.313 52.6074 141.97 52.6074H18.5304C15.1869 52.6074 12.0646 50.9364 10.2099 48.1544Z" fill="#FFFDFB" stroke="#FAF6F2" stroke-width="7"/>
<path d="M107.967 1.94896L103.526 4.0212C102.865 4.32978 102.339 4.86878 102.046 5.53729L101.207 7.45471C100.255 9.63149 102.091 11.9988 104.436 11.6185L112.134 10.3701C114.465 9.99218 115.466 7.19445 113.903 5.42395L111.485 2.68264C110.604 1.68499 109.172 1.38631 107.967 1.94896Z" fill="#FACA51" stroke="#DFB549" stroke-width="2"/>
<path d="M55.9665 1.94896L51.526 4.0212C50.8648 4.32978 50.3387 4.86878 50.0462 5.53729L49.2073 7.45471C48.255 9.63149 50.0907 11.9988 52.436 11.6185L60.1342 10.3701C62.4649 9.99218 63.4657 7.19445 61.9035 5.42395L59.4847 2.68264C58.6044 1.68499 57.1722 1.38631 55.9665 1.94896Z" fill="#FACA51" stroke="#DFB549" stroke-width="2"/>
<path d="M115.82 3.01726L111.526 5.0212C110.865 5.32978 110.339 5.86878 110.046 6.53729L108.703 9.60785C107.872 11.5063 109.171 13.655 111.238 13.8027L121.333 14.5238C123.916 14.7083 125.503 11.7544 123.925 9.70229L119.467 3.90668C118.61 2.79253 117.094 2.42284 115.82 3.01726Z" fill="#FACA51" stroke="#DFB549" stroke-width="2"/>
<path d="M90.4302 5.92877L77.9985 4.37481C76.346 4.16825 74.8415 5.34718 74.6469 7.00112L74.25 10.3748C74.1004 11.6464 74.7744 12.8728 75.928 13.4283L85.0341 17.8127C86.4311 18.4853 88.1104 17.9827 88.9081 16.6532L92.6305 10.4491C93.7461 8.58989 92.5816 6.1977 90.4302 5.92877Z" fill="#FACA51" stroke="#DFB549" stroke-width="2"/>
<path d="M103.167 5.39748L95.2935 4.79181C93.3593 4.64303 91.7946 6.3414 92.1011 8.25694L93.1242 14.6511C93.3443 16.027 94.4829 17.0702 95.8727 17.1695L107.833 18.0238C110.416 18.2083 112.003 15.2544 110.425 13.2023L105.315 6.55951C104.796 5.88513 104.016 5.46273 103.167 5.39748Z" fill="#FACA51" stroke="#DFB549" stroke-width="2"/>
<path d="M46.4667 7.18621L39.355 6.45051C37.2581 6.23359 35.5973 8.19012 36.152 10.2239L37.562 15.3942C37.8345 16.393 38.6026 17.1808 39.5943 17.4783L44.5842 18.9753C46.3679 19.5104 48.203 18.3081 48.4249 16.4592L49.1367 10.5277C49.3364 8.86363 48.1339 7.35868 46.4667 7.18621Z" fill="#FACA51" stroke="#DFB549" stroke-width="2"/>
<path d="M75.85 9.82999L71.1633 10.7673C70.4159 10.9168 69.7535 11.3452 69.3105 11.9654L67.4373 14.5878C66.242 16.2612 67.0466 18.614 69.0165 19.2049L72.7657 20.3297C74.0799 20.724 75.4942 20.1763 76.2002 18.9997L79.0109 14.3152C80.3508 12.0819 78.4039 9.31922 75.85 9.82999Z" fill="#FACA51" stroke="#DFB549" stroke-width="2"/>
<path d="M70.767 3.39089L59.2398 4.17683C57.04 4.32682 55.7482 6.71896 56.8291 8.64067L58.4066 11.4451C58.7873 12.1219 59.4156 12.6247 60.1593 12.8478L66.7657 14.8297C68.0799 15.224 69.4942 14.6763 70.2002 13.4997L73.5435 7.92742C74.7907 5.84885 73.1854 3.226 70.767 3.39089Z" fill="#FACA51" stroke="#DFB549" stroke-width="2"/>
<path d="M63.0752 6.13439L48.9985 4.37481C47.346 4.16825 45.8415 5.34718 45.6469 7.00112L45.2661 10.2383C45.1088 11.5753 45.8614 12.8534 47.1069 13.3644L60.804 18.9837C62.6529 19.7422 64.7127 18.5149 64.9256 16.5278L65.686 9.43083C65.8603 7.80389 64.6988 6.33735 63.0752 6.13439Z" fill="#FACA51" stroke="#DFB549" stroke-width="2"/>
</svg>
