<svg width="167" height="193" viewBox="0 0 167 193" fill="none" xmlns="http://www.w3.org/2000/svg">
<path d="M0 110.5C0 108.291 1.79086 106.5 4 106.5H156C158.209 106.5 160 108.291 160 110.5V110.5C160 112.709 158.209 114.5 156 114.5H4C1.79086 114.5 0 112.709 0 110.5V110.5Z" fill="#512D1E"/>
<path d="M7 114H152.321L129.964 192.036H29.3571L7 114Z" fill="black"/>
<path d="M23.4106 115.216L36.8981 191.907" stroke="#1F1F1F" stroke-width="2"/>
<path d="M37.4106 115.216L45.2777 191.907" stroke="#1F1F1F" stroke-width="2"/>
<path d="M50.4307 115.216L55.7589 191.471" stroke="#1F1F1F" stroke-width="2"/>
<path d="M64.3704 115.216L66.7186 191.907" stroke="#1F1F1F" stroke-width="2"/>
<path d="M90.3823 115.216L90.3823 191.034" stroke="#1F1F1F" stroke-width="2"/>
<path d="M77.3823 114.779L77.3823 191.132" stroke="#1F1F1F" stroke-width="2"/>
<path d="M103.309 115.216L101.281 191.034" stroke="#1F1F1F" stroke-width="2"/>
<path d="M116.73 115.216L111.1 191.034" stroke="#1F1F1F" stroke-width="2"/>
<path d="M129.226 116.088L119.915 191.906" stroke="#1F1F1F" stroke-width="2"/>
<path d="M137.944 115.216L124.948 191.907" stroke="#1F1F1F" stroke-width="2"/>
<path d="M147.911 114.779L128.948 191.907" stroke="#1F1F1F" stroke-width="2"/>
<path d="M14.9106 114.779L32.2777 191.907" stroke="#1F1F1F" stroke-width="2"/>
<path d="M10.2099 99.1541L9.84862 98.6122C6.01905 92.8679 9.02433 85.063 15.7175 83.3704L22.9875 81.532C27.4267 80.4094 28.9756 74.8949 25.7701 71.625C22.6159 68.4074 24.0574 62.9866 28.3931 61.7608L40.1888 58.4257C42.9993 57.6311 43.7001 53.9711 41.3819 52.1945C39.0226 50.3865 39.7986 46.6528 42.6829 45.9346L53.7316 43.1834C57.4838 42.2491 58.6842 37.5125 55.83 34.9039L54.7923 33.9554C53.0843 32.3944 53.221 29.6639 55.0763 28.2812L62.4646 22.7752C65.1167 20.7988 67.2599 18.219 68.7167 15.2496C71.6859 9.19759 77.6027 5.138 84.3177 4.5455L90.151 4.0308C90.3053 4.01718 90.4161 4.17647 90.3495 4.31642L87.6618 9.96708C85.1511 15.2453 87.6831 21.5424 93.1488 23.6136L104.279 27.8313C107.624 29.0989 108.047 33.6594 104.993 35.5207C101.704 37.5243 102.507 42.5085 106.258 43.378L117.897 46.0759C120.76 46.7397 121.596 50.413 119.303 52.2509C117.075 54.0357 117.787 57.5901 120.53 58.3795L131.402 61.5089C135.849 62.7887 137.104 68.4896 133.606 71.5182C130.006 74.6346 131.458 80.5181 136.095 81.6018L144.455 83.5561C151.252 85.145 154.371 93.0326 150.499 98.8406L150.29 99.1541C148.435 101.936 145.313 103.607 141.97 103.607H18.5304C15.1869 103.607 12.0646 101.936 10.2099 99.1541Z" fill="#FAFAFA" stroke="#E6E6E6" stroke-width="7"/>
<path d="M57.4073 63.0847L59.2264 66.5335C59.5777 67.1994 59.0948 68 58.3419 68H49.6366C48.8888 68 48.4056 67.2091 48.7468 66.5437L51.8095 60.5715C52.3392 59.5385 53.106 58.6457 54.0471 57.966C54.8648 57.3754 55.9484 57.3054 56.8353 57.7858L59.0769 59H58.5187C58.2861 59 58.0641 59.0972 57.9063 59.2681C56.9482 60.3061 56.7483 61.8353 57.4073 63.0847Z" fill="#553620" stroke="#412918" stroke-miterlimit="3.99933" stroke-linejoin="round"/>
<path d="M86.4073 52.0847L88.2264 55.5335C88.5777 56.1994 88.0948 57 87.3419 57H78.6366C77.8888 57 77.4056 56.2091 77.7468 55.5437L80.8095 49.5715C81.3392 48.5385 82.106 47.6457 83.0471 46.966C83.8648 46.3754 84.9484 46.3054 85.8353 46.7858L88.0769 48H87.5187C87.2861 48 87.0641 48.0972 86.9063 48.2681C85.9482 49.3061 85.7483 50.8353 86.4073 52.0847Z" fill="#553620" stroke="#412918" stroke-miterlimit="3.99933" stroke-linejoin="round"/>
<path d="M104.407 68.0847L106.226 71.5335C106.578 72.1994 106.095 73 105.342 73H96.6366C95.8888 73 95.4056 72.2091 95.7468 71.5437L98.8095 65.5715C99.3392 64.5385 100.106 63.6457 101.047 62.966C101.865 62.3754 102.948 62.3054 103.835 62.7858L106.077 64H105.519C105.286 64 105.064 64.0972 104.906 64.2681C103.948 65.3061 103.748 66.8353 104.407 68.0847Z" fill="#553620" stroke="#412918" stroke-miterlimit="3.99933" stroke-linejoin="round"/>
<path d="M77.4073 80.0847L79.2264 83.5335C79.5777 84.1994 79.0948 85 78.3419 85H69.6366C68.8888 85 68.4056 84.2091 68.7468 83.5437L71.8095 77.5715C72.3392 76.5385 73.106 75.6457 74.0471 74.966C74.8648 74.3754 75.9484 74.3054 76.8353 74.7858L79.0769 76H78.5187C78.2861 76 78.0641 76.0972 77.9063 76.2681C76.9482 77.3061 76.7483 78.8353 77.4073 80.0847Z" fill="#553620" stroke="#412918" stroke-miterlimit="3.99933" stroke-linejoin="round"/>
<path d="M45.4073 89.0847L47.2264 92.5335C47.5777 93.1994 47.0948 94 46.3419 94H37.6366C36.8888 94 36.4056 93.2091 36.7468 92.5437L39.8095 86.5715C40.3392 85.5385 41.106 84.6457 42.0471 83.966C42.8648 83.3754 43.9484 83.3054 44.8353 83.7858L47.0769 85H46.5187C46.2861 85 46.0641 85.0972 45.9063 85.2681C44.9482 86.3061 44.7483 87.8353 45.4073 89.0847Z" fill="#553620" stroke="#412918" stroke-miterlimit="3.99933" stroke-linejoin="round"/>
<path d="M116.407 84.0847L118.226 87.5335C118.578 88.1994 118.095 89 117.342 89H108.637C107.889 89 107.406 88.2091 107.747 87.5437L110.809 81.5715C111.339 80.5385 112.106 79.6457 113.047 78.966C113.865 78.3754 114.948 78.3054 115.835 78.7858L118.077 80H117.519C117.286 80 117.064 80.0972 116.906 80.2681C115.948 81.3061 115.748 82.8353 116.407 84.0847Z" fill="#553620" stroke="#412918" stroke-miterlimit="3.99933" stroke-linejoin="round"/>
<path d="M80.4073 27.0847L82.2264 30.5335C82.5777 31.1994 82.0948 32 81.3419 32H72.6366C71.8888 32 71.4056 31.2091 71.7468 30.5437L74.8095 24.5715C75.3392 23.5385 76.106 22.6457 77.0471 21.966C77.8648 21.3754 78.9484 21.3054 79.8353 21.7858L82.0769 23H81.5187C81.2861 23 81.0641 23.0972 80.9063 23.2681C79.9482 24.3061 79.7483 25.8353 80.4073 27.0847Z" fill="#553620" stroke="#412918" stroke-miterlimit="3.99933" stroke-linejoin="round"/>
</svg>
