<svg width="162" height="169" viewBox="0 0 162 169" fill="none" xmlns="http://www.w3.org/2000/svg">
<path d="M0 88.7706C0 86.624 1.7402 84.8838 3.88686 84.8838H151.587C153.734 84.8838 155.474 86.624 155.474 88.7706C155.474 90.9173 153.734 92.6575 151.587 92.6575H3.88686C1.74021 92.6575 0 90.9173 0 88.7706Z" fill="#ECD7AE"/>
<path d="M8.75905 86.3795L4.93601 84.468C4.42609 84.213 3.80652 84.4353 3.57498 84.9563L2.35278 87.7062C2.15043 88.1615 2.3141 88.6963 2.7366 88.9604L5.32541 90.5784C5.72028 90.8252 6.23324 90.7668 6.56251 90.4375L9.01894 87.9811C9.50158 87.4984 9.36955 86.6848 8.75905 86.3795Z" fill="#EBC384" stroke="#DEB470"/>
<path d="M103.287 86.5716L101.412 86.1031C101.149 86.0372 100.87 86.0813 100.64 86.2252L98.3568 87.652C97.7301 88.0437 97.7301 88.9563 98.3568 89.348L100.325 90.5784C100.72 90.8252 101.233 90.7668 101.563 90.4375L103.751 88.2489C104.301 87.6993 104.041 86.7602 103.287 86.5716Z" fill="#EBC384" stroke="#DEB470"/>
<path d="M43.1943 86.4343L38.9474 88.4965C38.4346 88.7456 38.2334 89.3723 38.5055 89.8733L39.8324 92.3168C40.1134 92.8343 40.7785 92.9982 41.2678 92.6704L45.2309 90.0153C45.6649 89.7245 45.8019 89.1486 45.5454 88.6935L44.5023 86.8428C44.2428 86.3824 43.6698 86.2034 43.1943 86.4343Z" fill="#E4D295" stroke="#DDCB91"/>
<path d="M144.599 88.2693L142.46 89.7044C142.016 90.0023 141.885 90.5967 142.162 91.0537L142.837 92.1643C143.072 92.5522 143.539 92.7329 143.974 92.6045L148.878 91.1578C149.823 90.8791 149.838 89.546 148.9 89.2461L145.46 88.1471C145.17 88.0542 144.852 88.0992 144.599 88.2693Z" fill="#E4D295" stroke="#DDCB91"/>
<path d="M63.1403 88.9329C63.4697 89.4153 63.582 89.8968 63.5728 90.3276C63.5541 91.2116 62.5874 91.8869 61.7663 91.5588C61.5016 91.453 61.1744 91.2693 60.7223 90.9606C59.3456 90.0207 59.5633 88.4367 60 88C60.9345 87.0655 62.2004 87.5562 63.1403 88.9329Z" fill="#80708E" stroke="#6E5E7D"/>
<path d="M125.195 87.1017C124.833 87.7059 124.19 88.0927 123.573 88.3045C122.737 88.5916 121.74 88.0878 121.694 87.2048C121.679 86.9201 121.708 86.546 121.799 86.0061C122.075 84.3622 123.444 84.3523 124.024 84.5658C125.264 85.0225 126.051 85.6712 125.195 87.1017Z" fill="#80708E" stroke="#6E5E7D"/>
<path d="M89.1948 92.1017C88.8333 92.7059 88.19 93.0927 87.5734 93.3045C86.7371 93.5916 85.74 93.0878 85.6937 92.2048C85.6788 91.9201 85.7084 91.546 85.7992 91.0061C86.0754 89.3622 88.4204 88.7866 89 89C90.2402 89.4567 90.0507 90.6712 89.1948 92.1017Z" fill="#E7E1B4" stroke="#DCD49D"/>
<path d="M29.5541 86.0955C29.9511 86.677 30.0327 87.4232 29.9664 88.0718C29.8766 88.9514 29.0012 89.6454 28.1801 89.3173C27.9154 89.2115 27.5882 89.0278 27.1361 88.7191C25.7594 87.7792 26.2198 85.4089 26.6565 84.9721C27.591 84.0376 28.6142 84.7188 29.5541 86.0955Z" fill="#E7E1B4" stroke="#DCD49D"/>
<path d="M6.80225 92.1719H148.013L126.288 168H28.527L6.80225 92.1719Z" fill="black"/>
<path d="M22.749 93.3545L35.8549 167.876" stroke="#1F1F1F" stroke-width="2"/>
<path d="M36.3525 93.3545L43.9971 167.876" stroke="#1F1F1F" stroke-width="2"/>
<path d="M49.0044 93.3545L54.1819 167.452" stroke="#1F1F1F" stroke-width="2"/>
<path d="M62.5498 93.3545L64.8316 167.876" stroke="#1F1F1F" stroke-width="2"/>
<path d="M87.8262 93.3545L87.8262 167.028" stroke="#1F1F1F" stroke-width="2"/>
<path d="M75.1938 92.9298L75.1938 167.123" stroke="#1F1F1F" stroke-width="2"/>
<path d="M100.387 93.3545L98.4163 167.028" stroke="#1F1F1F" stroke-width="2"/>
<path d="M113.429 93.3545L107.958 167.028" stroke="#1F1F1F" stroke-width="2"/>
<path d="M125.571 94.2019L116.524 167.876" stroke="#1F1F1F" stroke-width="2"/>
<path d="M134.043 93.3545L121.415 167.876" stroke="#1F1F1F" stroke-width="2"/>
<path d="M143.727 92.9298L125.301 167.876" stroke="#1F1F1F" stroke-width="2"/>
<path d="M14.4893 92.9298L31.3651 167.876" stroke="#1F1F1F" stroke-width="2"/>
<path d="M22.7074 50.8357L36.328 48.4592C37.5738 48.2418 37.9934 46.6651 37.0204 45.8573L36.5845 45.4955C28.9516 39.1587 30.582 27.0191 39.6163 22.9208C41.8039 21.9284 44.1296 21.2745 46.5138 20.9814L50.9922 20.4308C61.0212 19.1979 70.5099 15.2007 78.3982 8.88579L79.9617 7.63413C83.6798 4.65761 88.3942 3.21321 93.1416 3.59608L98.5608 4.03312C99.1159 4.07788 99.3486 4.76463 98.9351 5.13764L90.0359 13.1644C89.4806 13.6653 89.1155 14.3429 89.0027 15.0823L88.9356 15.5219C88.4618 18.6264 90.8645 21.4236 94.0049 21.4236H94.5218C102.937 21.4236 111.148 24.0196 118.034 28.8576C122.093 31.7099 122.154 37.7053 118.152 40.6389L116.128 42.1232C115.155 42.8364 115.429 44.3567 116.59 44.6851L133.633 49.5077C141.398 51.7053 147.274 58.0753 148.838 65.9931C150.475 74.2813 144.132 82 135.684 82H18.8317C10.3445 82 4.17145 73.943 6.38004 65.7482C8.46119 58.0263 14.829 52.2103 22.7074 50.8357Z" fill="#FBFBFB" stroke="#F8F8F8" stroke-width="7"/>
</svg>
