<svg width="167" height="162" viewBox="0 0 167 162" fill="none" xmlns="http://www.w3.org/2000/svg">
<path d="M0 79.5C0 77.2909 1.79086 75.5 4 75.5H156C158.209 75.5 160 77.2909 160 79.5C160 81.7091 158.209 83.5 156 83.5H4C1.79086 83.5 0 81.7091 0 79.5Z" fill="#B6854C"/>
<path d="M7 83H152.321L129.964 161.036H29.3571L7 83Z" fill="black"/>
<path d="M23.4106 84.2148L36.8981 160.906" stroke="#1F1F1F" stroke-width="2"/>
<path d="M37.4106 84.2148L45.2777 160.906" stroke="#1F1F1F" stroke-width="2"/>
<path d="M50.4307 84.2148L55.7589 160.47" stroke="#1F1F1F" stroke-width="2"/>
<path d="M64.3704 84.2148L66.7186 160.906" stroke="#1F1F1F" stroke-width="2"/>
<path d="M90.3823 84.2148L90.3823 160.033" stroke="#1F1F1F" stroke-width="2"/>
<path d="M77.3823 83.7793L77.3823 160.132" stroke="#1F1F1F" stroke-width="2"/>
<path d="M103.309 84.2148L101.281 160.033" stroke="#1F1F1F" stroke-width="2"/>
<path d="M116.73 84.2148L111.1 160.033" stroke="#1F1F1F" stroke-width="2"/>
<path d="M129.226 85.0879L119.915 160.906" stroke="#1F1F1F" stroke-width="2"/>
<path d="M137.944 84.2148L124.948 160.906" stroke="#1F1F1F" stroke-width="2"/>
<path d="M147.911 83.7793L128.948 160.907" stroke="#1F1F1F" stroke-width="2"/>
<path d="M14.9106 83.7793L32.2777 160.907" stroke="#1F1F1F" stroke-width="2"/>
<path d="M31.2075 45.5602L43.2421 43.4773C44.3243 43.29 44.6872 41.9189 43.8395 41.2207L43.5145 40.9531C36.8297 35.448 38.2496 24.8377 46.1467 21.284C48.0381 20.4329 50.0472 19.8723 52.1061 19.6212L56.0642 19.1385C64.85 18.0671 73.1684 14.5868 80.0997 9.08262L81.4358 8.02158C84.6901 5.43729 88.8038 4.18431 92.9462 4.5157L97.7 4.896C98.1898 4.93518 98.3943 5.54196 98.0281 5.86962L90.2506 12.8284C89.7653 13.2626 89.4459 13.8519 89.3468 14.4955L89.299 14.8062C88.8789 17.5371 90.9919 20 93.7549 20H94.2817C101.585 20 108.712 22.2388 114.704 26.4146C118.275 28.9037 118.328 34.1707 114.807 36.7311L113.094 37.9772C112.246 38.5938 112.483 39.9164 113.493 40.1997L128.504 44.4135C135.251 46.3072 140.362 51.8286 141.73 58.7007C143.164 65.8975 137.658 72.6077 130.32 72.6077H27.8222C20.4443 72.6077 15.0835 65.596 17.0179 58.4762C18.8372 51.78 24.3702 46.7436 31.2075 45.5602Z" fill="#F8DECB" stroke="#EDCAB1" stroke-width="7"/>
</svg>
