<svg width="167" height="193" viewBox="0 0 167 193" fill="none" xmlns="http://www.w3.org/2000/svg">
<path d="M0 110.5C0 108.291 1.79086 106.5 4 106.5H156C158.209 106.5 160 108.291 160 110.5C160 112.709 158.209 114.5 156 114.5H4C1.79086 114.5 0 112.709 0 110.5Z" fill="#F8ECD4"/>
<path d="M7 114H152.321L129.964 192.036H29.3571L7 114Z" fill="black"/>
<path d="M23.4106 115.215L36.8981 191.906" stroke="#1F1F1F" stroke-width="2"/>
<path d="M37.4106 115.215L45.2777 191.906" stroke="#1F1F1F" stroke-width="2"/>
<path d="M50.4307 115.215L55.7589 191.47" stroke="#1F1F1F" stroke-width="2"/>
<path d="M64.3704 115.215L66.7186 191.906" stroke="#1F1F1F" stroke-width="2"/>
<path d="M90.3823 115.215L90.3823 191.033" stroke="#1F1F1F" stroke-width="2"/>
<path d="M77.3823 114.779L77.3823 191.132" stroke="#1F1F1F" stroke-width="2"/>
<path d="M103.309 115.215L101.281 191.033" stroke="#1F1F1F" stroke-width="2"/>
<path d="M116.73 115.215L111.1 191.033" stroke="#1F1F1F" stroke-width="2"/>
<path d="M129.226 116.088L119.915 191.906" stroke="#1F1F1F" stroke-width="2"/>
<path d="M137.944 115.215L124.948 191.906" stroke="#1F1F1F" stroke-width="2"/>
<path d="M147.911 114.779L128.948 191.907" stroke="#1F1F1F" stroke-width="2"/>
<path d="M14.9106 114.779L32.2777 191.907" stroke="#1F1F1F" stroke-width="2"/>
<path d="M10.2099 99.1541L9.84862 98.6122C6.01905 92.8679 9.02433 85.063 15.7175 83.3704L22.9875 81.532C27.4267 80.4094 28.9756 74.8949 25.7701 71.625C22.6159 68.4074 24.0574 62.9866 28.3931 61.7608L40.1888 58.4257C42.9993 57.6311 43.7001 53.9711 41.3819 52.1945C39.0226 50.3865 39.7986 46.6528 42.6829 45.9346L53.7316 43.1834C57.4838 42.2491 58.6842 37.5125 55.83 34.9039L54.7923 33.9554C53.0843 32.3944 53.221 29.6639 55.0763 28.2812L62.4646 22.7752C65.1167 20.7988 67.2599 18.219 68.7167 15.2496C71.6859 9.19759 77.6027 5.138 84.3177 4.5455L90.151 4.0308C90.3053 4.01718 90.4161 4.17647 90.3495 4.31642L87.6618 9.96708C85.1511 15.2453 87.6831 21.5424 93.1488 23.6136L104.279 27.8313C107.624 29.0989 108.047 33.6594 104.993 35.5207C101.704 37.5243 102.507 42.5085 106.258 43.378L117.897 46.0759C120.76 46.7397 121.596 50.413 119.303 52.2509C117.075 54.0357 117.787 57.5901 120.53 58.3795L131.402 61.5089C135.849 62.7887 137.104 68.4896 133.606 71.5182C130.006 74.6346 131.458 80.5181 136.095 81.6018L144.455 83.5561C151.252 85.145 154.371 93.0326 150.499 98.8406L150.29 99.1541C148.435 101.936 145.313 103.607 141.97 103.607H18.5304C15.1869 103.607 12.0646 101.936 10.2099 99.1541Z" fill="#DBBBB1" stroke="#C1A096" stroke-width="7"/>
</svg>
