<svg width="167" height="193" viewBox="0 0 167 193" fill="none" xmlns="http://www.w3.org/2000/svg">
<path d="M0 110.5C0 108.291 1.79086 106.5 4 106.5H156C158.209 106.5 160 108.291 160 110.5V110.5C160 112.709 158.209 114.5 156 114.5H4C1.79086 114.5 0 112.709 0 110.5V110.5Z" fill="#F8ECD4"/>
<path d="M7 114H152.321L129.964 192.036H29.3571L7 114Z" fill="black"/>
<path d="M23.4106 115.216L36.8981 191.907" stroke="#1F1F1F" stroke-width="2"/>
<path d="M37.4106 115.216L45.2777 191.907" stroke="#1F1F1F" stroke-width="2"/>
<path d="M50.4307 115.216L55.7589 191.471" stroke="#1F1F1F" stroke-width="2"/>
<path d="M64.3704 115.216L66.7186 191.907" stroke="#1F1F1F" stroke-width="2"/>
<path d="M90.3823 115.216L90.3823 191.034" stroke="#1F1F1F" stroke-width="2"/>
<path d="M77.3823 114.779L77.3823 191.132" stroke="#1F1F1F" stroke-width="2"/>
<path d="M103.309 115.216L101.281 191.034" stroke="#1F1F1F" stroke-width="2"/>
<path d="M116.73 115.216L111.1 191.034" stroke="#1F1F1F" stroke-width="2"/>
<path d="M129.226 116.088L119.915 191.906" stroke="#1F1F1F" stroke-width="2"/>
<path d="M137.944 115.216L124.948 191.907" stroke="#1F1F1F" stroke-width="2"/>
<path d="M147.911 114.779L128.948 191.907" stroke="#1F1F1F" stroke-width="2"/>
<path d="M14.9106 114.779L32.2777 191.907" stroke="#1F1F1F" stroke-width="2"/>
<path d="M10.2099 99.1541L9.84862 98.6122C6.01905 92.8679 9.02433 85.063 15.7175 83.3704L22.9875 81.532C27.4267 80.4094 28.9756 74.8949 25.7701 71.625C22.6159 68.4074 24.0574 62.9866 28.3931 61.7608L40.1888 58.4257C42.9993 57.6311 43.7001 53.9711 41.3819 52.1945C39.0226 50.3865 39.7986 46.6528 42.6829 45.9346L53.7316 43.1834C57.4838 42.2491 58.6842 37.5125 55.83 34.9039L54.7923 33.9554C53.0843 32.3944 53.221 29.6639 55.0763 28.2812L62.4646 22.7752C65.1167 20.7988 67.2599 18.219 68.7167 15.2496C71.6859 9.19759 77.6027 5.138 84.3177 4.5455L90.151 4.0308C90.3053 4.01718 90.4161 4.17647 90.3495 4.31642L87.6618 9.96708C85.1511 15.2453 87.6831 21.5424 93.1488 23.6136L104.279 27.8313C107.624 29.0989 108.047 33.6594 104.993 35.5207C101.704 37.5243 102.507 42.5085 106.258 43.378L117.897 46.0759C120.76 46.7397 121.596 50.413 119.303 52.2509C117.075 54.0357 117.787 57.5901 120.53 58.3795L131.402 61.5089C135.849 62.7887 137.104 68.4896 133.606 71.5182C130.006 74.6346 131.458 80.5181 136.095 81.6018L144.455 83.5561C151.252 85.145 154.371 93.0326 150.499 98.8406L150.29 99.1541C148.435 101.936 145.313 103.607 141.97 103.607H18.5304C15.1869 103.607 12.0646 101.936 10.2099 99.1541Z" fill="#E9C9A4" stroke="#D8BC9B" stroke-width="7"/>
<path d="M26.5281 72.957L25.5566 70.3627C25.077 69.0816 25.2562 67.6467 26.0361 66.523C27.2727 64.7414 29.6684 64.2051 31.5465 65.2894L32.2399 65.6898C33.0127 66.136 33.6532 66.7793 34.0959 67.5541L36.0518 70.9771C36.5907 71.9203 37.2863 72.7647 38.1088 73.4743L41.9842 76.8176C43.6535 78.2576 43.9072 80.7508 42.5622 82.4975C41.292 84.1473 38.9967 84.6019 37.1935 83.5608L33.8975 81.6579C30.5063 79.7 27.9012 76.6242 26.5281 72.957Z" fill="#F4BB77" stroke="#D9A66A" stroke-width="2"/>
<path d="M92.4043 24.8493L90.9121 22.3251C90.1452 21.0278 90.2044 19.4025 91.0637 18.1645C92.2071 16.5171 94.4224 16.0212 96.159 17.0239L97.6601 17.8905C98.0736 18.1292 98.4556 18.4186 98.7975 18.752L103.154 23L106.286 26.881C107.944 28.9357 106.928 32.017 104.373 32.6824C103.583 32.8881 102.747 32.8221 101.999 32.495L100.103 31.6654C96.8852 30.2576 94.1917 27.873 92.4043 24.8493Z" fill="#F4BB77" stroke="#D9A66A" stroke-width="2"/>
<path d="M63.5285 39.0586L59.6156 41.5263C58.0847 42.4917 56.0766 42.1821 54.9075 40.8005C53.6878 39.3591 53.7766 37.2234 55.1118 35.8882L56.779 34.221C57.1433 33.8567 57.5516 33.5393 57.9945 33.2761L63.6386 29.9223L68.5921 27.7267C71.3988 26.4827 74.6279 28.2038 75.16 31.2273C75.6204 33.8434 73.8345 36.3248 71.2076 36.7189L68.8895 37.0666C66.9839 37.3524 65.1584 38.0307 63.5285 39.0586Z" fill="#F4BB77" stroke="#D9A66A" stroke-width="2"/>
<path d="M86.9942 55.019L85.9604 52.9346L85.1051 51.653C83.7782 49.6647 85.2035 47 87.5939 47C88.1686 47 88.731 47.1655 89.2141 47.4766L94.3628 50.793C95.0856 51.2586 95.9024 51.5586 96.7548 51.6717L98.2802 51.8739C101.924 52.3572 103.758 56.5318 101.648 59.542C100.647 60.9705 98.9625 61.7591 97.2244 61.6125L96.6131 61.561C92.4833 61.2127 88.8356 58.7319 86.9942 55.019Z" fill="#F4BB77" stroke="#D9A66A" stroke-width="2"/>
<path d="M48.9838 57.5867L48.6887 57.189C48.5634 57.02 48.4587 56.8366 48.377 56.6427C47.4799 54.5132 49.5672 52.3444 51.7296 53.1593L53.0584 53.6601C53.6471 53.8819 54.2875 53.9276 54.9017 53.7918L60.8975 52.4652C62.2395 52.1683 63.6447 52.4371 64.7823 53.2085C67.5343 55.0743 67.7315 59.0569 65.1773 61.1855L64.5588 61.7009C63.5516 62.5403 62.2819 63 60.9708 63H59.7405C55.5002 63 51.5103 60.9921 48.9838 57.5867Z" fill="#F4BB77" stroke="#D9A66A" stroke-width="2"/>
<path d="M67.5748 92.4497L66.5199 90.8087C66.1766 90.2748 65.9416 89.6786 65.828 89.0542L65.1292 85.2104C64.4959 81.7277 66.697 78.3579 70.1406 77.538L72.2921 77.0257C73.6271 76.7078 75.0216 77.2302 75.8192 78.3469C76.5457 79.3639 76.6504 80.6992 76.0915 81.817L75.6983 82.6034C74.9529 84.0943 75.028 85.864 75.8972 87.2863L77.6258 90.115C78.8329 92.0902 77.8657 94.674 75.6583 95.371C72.6133 96.3326 69.3016 95.1358 67.5748 92.4497Z" fill="#F4BB77" stroke="#D9A66A" stroke-width="2"/>
<path d="M98.2647 82.7185L98.5 82.5L101.833 80.1666C102.903 79.4178 103.643 78.2855 103.899 77.0052L104.2 75.4994C104.628 73.3591 106.812 72.0576 108.898 72.6994C110.445 73.1753 111.5 74.6041 111.5 76.2222V80.9035C111.5 81.9414 111.173 82.9529 110.565 83.7942L107.634 87.8535C106.025 90.0803 103.278 91.1811 100.577 90.6809C96.8263 89.9863 95.4694 85.3141 98.2647 82.7185Z" fill="#F4BB77" stroke="#D9A66A" stroke-width="2"/>
<path d="M132.513 65.4756L132.881 65.8714C132.96 65.957 133.046 66.0367 133.137 66.1097L137.318 69.4546C137.771 69.8164 138.271 70.113 138.806 70.3358L140.803 71.1678C142.616 71.9234 143.559 73.9328 142.981 75.8106C142.419 77.6368 140.593 78.7655 138.708 78.4514L133.743 77.6238C133.251 77.5419 132.777 77.3763 132.342 77.1342L128.277 74.876C125.722 73.4564 124.359 70.5634 124.891 67.6891C125.556 64.0987 130.028 62.7998 132.513 65.4756Z" fill="#F4BB77" stroke="#D9A66A" stroke-width="2"/>
</svg>
